<?xml version="1.0" standalone="no"?>
<!DOCTYPE svg PUBLIC "-//W3C//DTD SVG 1.1//EN" "http://www.w3.org/Graphics/SVG/1.1/DTD/svg11.dtd" >
<svg xmlns="http://www.w3.org/2000/svg" xmlns:xlink="http://www.w3.org/1999/xlink" version="1.1">
<metadata>
Created by FontForge 20190801 at Mon Feb  8 17:07:56 2016
 By Unknown
Pangram Pangram 2015
</metadata>
<defs>
<font id="Pangram-Regular" horiz-adv-x="0" >
  <font-face 
    font-family="Pangram"
    font-weight="400"
    font-stretch="normal"
    units-per-em="1000"
    panose-1="0 0 5 0 0 0 0 0 0 0"
    ascent="800"
    descent="-200"
    x-height="506"
    cap-height="710"
    bbox="-775 -251 1290 1003"
    underline-thickness="50"
    underline-position="-100"
    unicode-range="U+0020-25CA"
  />
<missing-glyph horiz-adv-x="490" 
d="M402 750v-980h-311v980h311zM326 684h-161v-32h63v-36h-64v-33h162v33h-64v36h64v32zM262 558h-98v-102h162v33h-64v69zM228 525v-36h-32v36h32zM326 430h-162v-33h64v-36h-64v-32h98v68h64v33zM326 371h-32v-65h-130v-33h162v98zM326 251h-98v-55h34v23h32v-46h-98v78
h-32v-111h162v111zM326 82h-162v-111h162v111zM294 49v-46h-98v46h98zM326 -52h-162v-32h68l-68 -46v-32h162v32h-100l69 46h31v32z" />
    <glyph glyph-name=".notdef" horiz-adv-x="490" 
d="M402 750v-980h-311v980h311zM326 684h-161v-32h63v-36h-64v-33h162v33h-64v36h64v32zM262 558h-98v-102h162v33h-64v69zM228 525v-36h-32v36h32zM326 430h-162v-33h64v-36h-64v-32h98v68h64v33zM326 371h-32v-65h-130v-33h162v98zM326 251h-98v-55h34v23h32v-46h-98v78
h-32v-111h162v111zM326 82h-162v-111h162v111zM294 49v-46h-98v46h98zM326 -52h-162v-32h68l-68 -46v-32h162v32h-100l69 46h31v32z" />
    <glyph glyph-name=".null" 
 />
    <glyph glyph-name="nonmarkingreturn" horiz-adv-x="333" 
 />
    <glyph glyph-name="space" unicode=" " horiz-adv-x="254" 
 />
    <glyph glyph-name="exclam" unicode="!" horiz-adv-x="223" 
d="M82 195l-4 515h86l-5 -515h-77zM121 -10q-20 0 -34.5 14.5t-14.5 34.5q0 21 14.5 35t34.5 14q21 0 35 -14t14 -35q0 -20 -14 -34.5t-35 -14.5z" />
    <glyph glyph-name="quotedbl" unicode="&#x22;" horiz-adv-x="341" 
d="M233 728h68v-192h-68v192zM110 728h68v-192h-68v192z" />
    <glyph glyph-name="numbersign" unicode="#" horiz-adv-x="763" 
d="M703 426h-123l-19 -175h112v-85h-121l-18 -166h-83l18 166h-178l-17 -166h-84l18 166h-128v85h137l19 175h-126v86h135l21 198h84l-22 -198h178l21 198h83l-21 -198h114v-86zM478 251l19 175h-178l-18 -175h177z" />
    <glyph glyph-name="dollar" unicode="$" horiz-adv-x="645" 
d="M556 170q0 -80 -58.5 -129t-149.5 -51v-70h-29v71q-88 6 -145.5 64t-62.5 143h86q4 -55 38.5 -87.5t83.5 -38.5v254l-1 1q-105 56 -148.5 100.5t-43.5 118.5t55.5 122.5t137.5 51.5v70h29v-71q78 -7 128 -61.5t55 -131.5h-86q-4 44 -30.5 74.5t-66.5 36.5v-233
q106 -55 157 -106t51 -128zM212 542q0 -44 25.5 -70t81.5 -54v221q-46 -3 -76.5 -30t-30.5 -67zM348 71q57 2 90 30.5t33 71.5q0 45 -30.5 76t-92.5 63v-241z" />
    <glyph glyph-name="percent" unicode="%" horiz-adv-x="1000" 
d="M265 390q-69 0 -117 48t-48 117t48 117t117 48t117 -48t48 -117t-48 -117t-117 -48zM816 710l-536 -710h-81l536 710h81zM265 454q43 0 72 29t29 72t-29 72t-72 29t-72 -29t-29 -72t29 -72t72 -29zM755 -10q-69 0 -117 48t-48 117t48 117t117 48t117 -48t48 -117
t-48 -117t-117 -48zM755 54q43 0 72.5 29t29.5 72t-29.5 72t-72.5 29t-72 -29t-29 -72t29 -72t72 -29z" />
    <glyph glyph-name="ampersand" unicode="&#x26;" horiz-adv-x="780" 
d="M700 0h-103l-51 51q-79 -61 -195 -61t-183.5 62t-67.5 154q0 63 33 110.5t78 71.5q-65 69 -65 147q0 75 56.5 130t156.5 55q94 0 149.5 -59t55.5 -143h-85q0 54 -33 87.5t-90 33.5q-56 0 -90.5 -32.5t-34.5 -79.5q0 -26 12 -50t24 -38t37 -38l234 -237q43 64 43 147h-49
v46h135q0 -157 -70 -253zM360 71q71 0 127 40l-228 229q-31 -14 -52 -44.5t-21 -71.5q0 -64 48 -108.5t126 -44.5z" />
    <glyph glyph-name="quotesingle" unicode="'" horiz-adv-x="218" 
d="M110 728h68v-192h-68v192z" />
    <glyph glyph-name="parenleft" unicode="(" horiz-adv-x="366" 
d="M286 710v-81q-47 0 -83.5 -28.5t-36.5 -91.5v-388q0 -62 36.5 -91t83.5 -29v-81q-95 0 -150.5 49.5t-55.5 151.5v388q0 102 55.5 151.5t150.5 49.5z" />
    <glyph glyph-name="parenright" unicode=")" horiz-adv-x="356" 
d="M70 710q95 0 150.5 -49.5t55.5 -151.5v-388q0 -102 -55.5 -151.5t-150.5 -49.5v81q47 0 83.5 29t36.5 91v388q0 63 -36.5 91.5t-83.5 28.5v81z" />
    <glyph glyph-name="asterisk" unicode="*" horiz-adv-x="523" 
d="M335 381l-59 120l-58 -119l-59 34l73 109l-132 -8v68l133 -9l-74 110l59 34l58 -118l59 119l59 -34l-74 -111l133 9v-68l-133 9l74 -111z" />
    <glyph glyph-name="plus" unicode="+" horiz-adv-x="566" 
d="M465 326v-81h-142v-141h-81v141h-142v81h142v143h81v-143h142z" />
    <glyph glyph-name="comma" unicode="," horiz-adv-x="217" 
d="M75 57h92l-68 -191h-69z" />
    <glyph glyph-name="hyphen" unicode="-" horiz-adv-x="523" 
d="M89 311h365v-81h-365v81z" />
    <glyph glyph-name="period" unicode="." horiz-adv-x="178" 
d="M79 -10q-20 0 -34.5 14.5t-14.5 34.5q0 21 14.5 35t34.5 14q21 0 35 -14t14 -35q0 -20 -14 -34.5t-35 -14.5z" />
    <glyph glyph-name="slash" unicode="/" horiz-adv-x="421" 
d="M391 710l-266 -710h-75l266 710h75z" />
    <glyph glyph-name="zero" unicode="0" horiz-adv-x="660" 
d="M340 720q107 0 183.5 -69.5t76.5 -181.5v-228q0 -112 -76.5 -181.5t-183.5 -69.5t-183.5 69.5t-76.5 181.5v228q0 112 76.5 181.5t183.5 69.5zM340 71q73 0 123.5 48t50.5 122v228q0 74 -50.5 122t-123.5 48t-123.5 -48t-50.5 -122v-228q0 -74 50.5 -122t123.5 -48z" />
    <glyph glyph-name="one" unicode="1" horiz-adv-x="536" 
d="M321 81h165v-81h-416v81h165v523l-137 -34v86l223 54v-629z" />
    <glyph glyph-name="two" unicode="2" horiz-adv-x="654" 
d="M584 498q0 -68 -42 -122.5t-102 -89t-119.5 -65t-101.5 -65.5t-42 -75h407v-81h-494v81q0 42 22.5 78.5t58.5 63.5t79.5 51.5t87 48.5t79.5 49t58.5 58t22.5 71q0 60 -41.5 99t-105.5 39q-78 0 -126.5 -42t-48.5 -107h-86q0 97 74 163.5t188 66.5q100 0 166 -61.5
t66 -160.5z" />
    <glyph glyph-name="three" unicode="3" horiz-adv-x="662" 
d="M476 370q116 -54 116 -170q0 -88 -65 -149t-176 -61q-115 0 -188 67.5t-73 165.5h86q0 -69 49 -110.5t122 -41.5q74 0 117 38t43 96q0 63 -47.5 92t-121.5 29h-55v82h55q66 0 102.5 29.5t36.5 80.5q0 53 -38 87t-102 34q-71 0 -116 -42.5t-45 -109.5h-86q0 99 68.5 166
t182.5 67q97 0 159 -58t62 -140q0 -100 -86 -152z" />
    <glyph glyph-name="four" unicode="4" horiz-adv-x="681" 
d="M631 227v-81h-99v-146h-86v146h-376v81l376 483h86v-483h99zM178 227h268v352z" />
    <glyph glyph-name="five" unicode="5" horiz-adv-x="662" 
d="M358 479q99 0 166.5 -67t67.5 -178q0 -101 -71.5 -172.5t-179.5 -71.5q-114 0 -182.5 68t-68.5 165h86q1 -63 46.5 -105t117.5 -42q69 0 118 45.5t49 116.5q0 77 -47.5 120.5t-119.5 43.5q-51 0 -96 -24.5t-62 -72.5h-84l62 405h382v-81h-310l-30 -194q68 44 156 44z" />
    <glyph glyph-name="six" unicode="6" horiz-adv-x="682" 
d="M352 475q106 0 178 -72t72 -171q0 -100 -72 -171t-178 -71q-107 0 -179.5 71t-72.5 171q0 74 42 135l224 343h99l-159 -239q30 4 46 4zM352 71q70 0 117.5 47.5t47.5 113.5t-48 114t-117 48q-71 0 -118.5 -48t-47.5 -114t47.5 -113.5t118.5 -47.5z" />
    <glyph glyph-name="seven" unicode="7" horiz-adv-x="614" 
d="M80 710h484v-81l-304 -629h-93l304 629h-391v81z" />
    <glyph glyph-name="eight" unicode="8" horiz-adv-x="654" 
d="M467 392q53 -28 85 -75.5t32 -107.5q0 -93 -69 -154t-178 -61t-178 61t-69 154q0 60 31.5 107.5t84.5 75.5q-76 55 -76 139q0 80 61 132.5t146 52.5t146 -52.5t61 -132.5q0 -83 -77 -139zM337 635q-47 0 -84 -28t-37 -76t37 -75.5t84 -27.5t84 27.5t37 75.5t-37 76
t-84 28zM337 75q69 0 115 37.5t46 96.5t-46 96.5t-115 37.5q-70 0 -115.5 -37.5t-45.5 -96.5t45.5 -96.5t115.5 -37.5z" />
    <glyph glyph-name="nine" unicode="9" horiz-adv-x="682" 
d="M602 478q0 -71 -39 -130h1l-227 -348h-100l159 239q-20 -4 -46 -4q-106 0 -178 72t-72 171q0 100 72 171t178 71q107 0 179.5 -71t72.5 -171zM186 478q0 -66 47.5 -113.5t116.5 -47.5q71 0 119 47.5t48 113.5t-48 113.5t-119 47.5q-69 0 -116.5 -47.5t-47.5 -113.5z" />
    <glyph glyph-name="colon" unicode=":" horiz-adv-x="218" 
d="M119 376q-20 0 -34.5 14.5t-14.5 34.5q0 21 14.5 35t34.5 14q21 0 35 -14t14 -35q0 -20 -14 -34.5t-35 -14.5zM119 -10q-20 0 -34.5 14.5t-14.5 34.5q0 21 14.5 35t34.5 14q21 0 35 -14t14 -35q0 -20 -14 -34.5t-35 -14.5z" />
    <glyph glyph-name="semicolon" unicode=";" horiz-adv-x="220" 
d="M117 376q-20 0 -34.5 14.5t-14.5 34.5q0 21 14.5 35t34.5 14q21 0 35 -14t14 -35q0 -20 -14 -34.5t-35 -14.5zM73 57h92l-68 -191h-69z" />
    <glyph glyph-name="less" unicode="&#x3c;" horiz-adv-x="561" 
d="M461 479v-75l-273 -110l273 -109v-76l-365 147v77z" />
    <glyph glyph-name="equal" unicode="=" horiz-adv-x="566" 
d="M100 398h366v-82h-366v82zM100 255h366v-81h-366v81z" />
    <glyph glyph-name="greater" unicode="&#x3e;" horiz-adv-x="566" 
d="M100 479l366 -146v-77l-366 -147v76l273 109l-273 110v75z" />
    <glyph glyph-name="question" unicode="?" horiz-adv-x="550" 
d="M290 720q98 0 156 -56.5t58 -130.5q0 -75 -49 -128t-133 -70l-3 -140h-77l-4 198h15q78 0 122 34t44 94q0 51 -35 84.5t-93 33.5t-99 -39.5t-41 -107.5h-85q0 105 65.5 166.5t158.5 61.5zM281 88q20 0 34.5 -14t14.5 -35q0 -20 -14.5 -34.5t-34.5 -14.5q-21 0 -35 14.5
t-14 34.5q0 21 14 35t35 14z" />
    <glyph glyph-name="at" unicode="@" horiz-adv-x="996" 
d="M100 336q0 110 56 202t147 144t195 52q173 0 285.5 -110t112.5 -279q0 -112 -52.5 -181.5t-133.5 -69.5q-102 0 -102 140q-18 -36 -57.5 -59.5t-85.5 -23.5q-71 0 -121.5 54t-50.5 131t50.5 131t121.5 54q45 0 83.5 -22.5t55.5 -58.5v78h68v-270q0 -99 56 -99
q41 0 70.5 50t29.5 137q0 144 -87.5 237t-242.5 93q-135 0 -232.5 -94t-97.5 -236q0 -75 28 -137.5t73 -101t98 -60t106 -21.5q80 0 161 42l59 -40q-103 -70 -220 -70q-92 0 -176 44.5t-140.5 135.5t-56.5 208zM366 336q0 -48 34 -82.5t83 -34.5q48 0 82 34.5t34 82.5
t-34.5 82.5t-81.5 34.5q-49 0 -83 -34t-34 -83z" />
    <glyph glyph-name="A" unicode="A" horiz-adv-x="749" 
d="M600 0l-63 175h-305l-63 -175h-89l256 710h97l256 -710h-89zM261 256h246l-123 342z" />
    <glyph glyph-name="B" unicode="B" horiz-adv-x="617" 
d="M432 378q55 -27 87.5 -74t32.5 -107q0 -94 -65 -145.5t-181 -51.5h-222v710h207q108 0 164.5 -50.5t56.5 -133.5q0 -98 -80 -148zM170 629v-215h121q136 0 136 107q0 52 -35 80t-101 28h-121zM306 81q79 0 120 31t41 89q0 60 -41 96t-115 36h-141v-252h136z" />
    <glyph glyph-name="C" unicode="C" horiz-adv-x="724" 
d="M654 562q-84 77 -200 77t-197 -82t-81 -202t81 -202t197 -82q119 0 200 77v-87q-83 -71 -210 -71q-149 0 -251.5 106t-102.5 259t102.5 259t251.5 106q127 0 210 -71v-87z" />
    <glyph glyph-name="D" unicode="D" horiz-adv-x="697" 
d="M305 710q149 0 243 -101.5t94 -253.5t-94 -253.5t-243 -101.5h-229v710h229zM305 81q110 0 180.5 75.5t70.5 198.5t-70.5 198.5t-180.5 75.5h-144v-548h144z" />
    <glyph glyph-name="E" unicode="E" horiz-adv-x="512" 
d="M456 629h-295v-221h228v-81h-228v-246h295v-81h-380v710h380v-81z" />
    <glyph glyph-name="F" unicode="F" horiz-adv-x="501" 
d="M451 629h-295v-223h248v-81h-248v-325h-86v710h381v-81z" />
    <glyph glyph-name="G" unicode="G" horiz-adv-x="865" 
d="M421 380h374q0 -175 -98 -282.5t-257 -107.5q-150 0 -250 107t-100 258q0 152 101.5 258.5t257.5 106.5q173 0 281 -148l-66 -50q-82 117 -215 117q-118 0 -195.5 -82.5t-77.5 -201.5t75 -201.5t189 -82.5q105 0 176.5 63t88.5 165h-284v81z" />
    <glyph glyph-name="H" unicode="H" horiz-adv-x="678" 
d="M537 710h86v-710h-86v318h-376v-318h-85v710h85v-311h376v311z" />
    <glyph glyph-name="I" unicode="I" horiz-adv-x="226" 
d="M80 0v710h86v-710h-86z" />
    <glyph glyph-name="J" unicode="J" horiz-adv-x="513" 
d="M166 173q0 -45 25.5 -73.5t69.5 -28.5q96 0 96 125v514h86l-1 -514q0 -103 -49.5 -154.5t-127.5 -51.5q-73 0 -129 47.5t-56 135.5h86z" />
    <glyph glyph-name="K" unicode="K" horiz-adv-x="655" 
d="M595 710l-289 -331l289 -379h-102l-242 315l-85 -97v-218h-86v710h86v-365l318 365h111z" />
    <glyph glyph-name="L" unicode="L" horiz-adv-x="536" 
d="M176 81h290v-81h-376v710h86v-629z" />
    <glyph glyph-name="M" unicode="M" horiz-adv-x="875" 
d="M721 710h86v-710h-86v554l-254 -410h-39l-254 410v-554h-85v710h85l274 -440z" />
    <glyph glyph-name="N" unicode="N" horiz-adv-x="714" 
d="M568 710h86v-710h-86l-402 565v-565h-86v710h86l402 -565v565z" />
    <glyph glyph-name="O" unicode="O" horiz-adv-x="877" 
d="M448 -10q-151 0 -254.5 106.5t-103.5 258.5t103.5 258.5t254.5 106.5t255 -106.5t104 -258.5t-104 -258.5t-255 -106.5zM448 71q115 0 194 83.5t79 200.5t-79 200.5t-194 83.5t-193.5 -83.5t-78.5 -200.5t78.5 -200.5t193.5 -83.5z" />
    <glyph glyph-name="P" unicode="P" horiz-adv-x="617" 
d="M310 710q108 0 179.5 -61.5t71.5 -171.5q0 -111 -71.5 -172.5t-179.5 -61.5h-149v-243h-85v710h234zM310 325q75 0 120.5 39t45.5 113t-45.5 113t-120.5 39h-149v-304h149z" />
    <glyph glyph-name="Q" unicode="Q" horiz-adv-x="875" 
d="M811 14l-59 -60l-99 100q-91 -64 -205 -64q-151 0 -254.5 106.5t-103.5 258.5t103.5 258.5t254.5 106.5t255 -106.5t104 -258.5q0 -140 -92 -245zM448 71q79 0 146 43l-100 101l59 59l103 -104q65 79 65 185q0 117 -79 200.5t-194 83.5t-193.5 -83.5t-78.5 -200.5
t78.5 -200.5t193.5 -83.5z" />
    <glyph glyph-name="R" unicode="R" horiz-adv-x="621" 
d="M468 0l-151 238h-156v-238h-85v710h253q95 0 163.5 -65t68.5 -171q0 -83 -43 -141.5t-112 -82.5l160 -250h-98zM161 629v-310h168q61 0 104 42.5t43 112.5t-43 112.5t-104 42.5h-168z" />
    <glyph glyph-name="S" unicode="S" horiz-adv-x="616" 
d="M101 198h86q4 -61 45 -94t97 -33q61 0 96.5 28.5t35.5 73.5q0 27 -10.5 49t-35.5 41t-46 31.5t-61 32.5q-105 56 -148.5 100.5t-43.5 118.5q0 76 58.5 125t143.5 49q86 0 142 -56t61 -138h-86q-5 50 -37 81.5t-80 31.5q-49 0 -82.5 -27t-33.5 -70q0 -22 7.5 -40t16 -29
t31 -25.5t34.5 -20.5t45 -22q107 -55 158.5 -106t51.5 -129q0 -82 -61.5 -131t-155.5 -49q-96 0 -159.5 59t-68.5 149z" />
    <glyph glyph-name="T" unicode="T" horiz-adv-x="554" 
d="M504 710v-81h-174v-629h-86v629h-174v81h434z" />
    <glyph glyph-name="U" unicode="U" horiz-adv-x="682" 
d="M627 292q0 -152 -73 -227t-203 -75t-202.5 75t-72.5 227v418h85v-418q0 -221 190 -221t190 221v418h86v-418z" />
    <glyph glyph-name="V" unicode="V" horiz-adv-x="718" 
d="M579 710h89l-249 -710h-100l-249 710h89l210 -606z" />
    <glyph glyph-name="W" unicode="W" horiz-adv-x="1144" 
d="M1006 710h88l-227 -710h-102l-183 573l-183 -573h-102l-227 710h88l190 -597l190 597h88l190 -597z" />
    <glyph glyph-name="X" unicode="X" horiz-adv-x="760" 
d="M710 710l-268 -355l268 -355h-104l-216 286l-216 -286h-104l268 355l-268 355h104l216 -286l216 286h104z" />
    <glyph glyph-name="Y" unicode="Y" horiz-adv-x="716" 
d="M569 710h97l-255 -414v-296h-86v296l-255 414h97l201 -326z" />
    <glyph glyph-name="Z" unicode="Z" horiz-adv-x="690" 
d="M630 710v-81l-429 -548h429v-81h-540v81l429 548h-429v81h540z" />
    <glyph glyph-name="bracketleft" unicode="[" horiz-adv-x="366" 
d="M286 629h-120v-628h120v-81h-206v790h206v-81z" />
    <glyph glyph-name="backslash" unicode="\" horiz-adv-x="421" 
d="M50 710h75l266 -710h-75z" />
    <glyph glyph-name="bracketright" unicode="]" horiz-adv-x="356" 
d="M276 710v-790h-206v81h120v628h-120v81h206z" />
    <glyph glyph-name="asciicircum" unicode="^" horiz-adv-x="525" 
d="M495 310h-77l-146 317l-145 -317h-77l184 400h77z" />
    <glyph glyph-name="underscore" unicode="_" horiz-adv-x="650" 
d="M30 -23h610v-68h-610v68z" />
    <glyph glyph-name="grave" unicode="`" horiz-adv-x="374" 
d="M191 723l82 -147h-68l-105 147h91z" />
    <glyph glyph-name="a" unicode="a" horiz-adv-x="706" 
d="M90 254q0 109 74 185.5t182 76.5q69 0 124 -35t80 -90l4 115h82v-506h-82l-4 115q-25 -55 -80 -90t-124 -35q-108 0 -182 77t-74 187zM176 254q0 -76 53 -129.5t130 -53.5t129.5 53.5t52.5 129.5q0 74 -52.5 127.5t-129.5 53.5t-130 -53.5t-53 -127.5z" />
    <glyph glyph-name="b" unicode="b" horiz-adv-x="697" 
d="M627 254q0 -110 -74 -187t-182 -77q-69 0 -124.5 35t-79.5 90l-4 -115h-82v750h86v-359q24 55 79.5 90t124.5 35q108 0 182 -76.5t74 -185.5zM541 254q0 74 -53.5 127.5t-130.5 53.5q-76 0 -128.5 -53.5t-52.5 -127.5q0 -76 52 -129.5t129 -53.5t130.5 53.5t53.5 129.5z
" />
    <glyph glyph-name="c" unicode="c" horiz-adv-x="580" 
d="M510 372q-65 63 -145 63q-74 0 -129.5 -52.5t-55.5 -128.5q0 -78 55 -130.5t130 -52.5q81 0 145 64v-84q-63 -61 -158 -61q-110 0 -186 77.5t-76 186.5q0 108 76 185t186 77q95 0 158 -61v-83z" />
    <glyph glyph-name="d" unicode="d" horiz-adv-x="706" 
d="M90 254q0 109 74 185.5t182 76.5q69 0 124 -35t80 -90v359h86v-750h-82l-4 115q-25 -55 -80 -90t-124 -35q-108 0 -182 77t-74 187zM176 254q0 -76 53 -129.5t130 -53.5t129.5 53.5t52.5 129.5q0 74 -52.5 127.5t-129.5 53.5t-130 -53.5t-53 -127.5z" />
    <glyph glyph-name="e" unicode="e" horiz-adv-x="666" 
d="M596 248v-22h-420q2 -70 50 -114.5t125 -44.5q58 0 97 26t58 64l76 -10q-17 -60 -78 -108.5t-153 -48.5q-114 0 -187.5 75.5t-73.5 190.5q0 109 71.5 184.5t181.5 75.5q113 0 183 -78.5t70 -189.5zM343 439q-70 0 -117.5 -44t-49.5 -107h334q-4 62 -50 106.5t-117 44.5z
" />
    <glyph glyph-name="f" unicode="f" horiz-adv-x="375" 
d="M264 639q-69 0 -69 -86v-47h124v-81h-124v-425h-85v425h-50v81h50v59q0 80 36 117.5t91 37.5q51 0 87 -28v-74q-28 21 -60 21z" />
    <glyph glyph-name="g" unicode="g" horiz-adv-x="602" 
d="M292 82q112 0 176 -43.5t64 -117.5q0 -75 -63.5 -118t-157.5 -43t-157.5 43t-63.5 118q0 73 69 116q-46 26 -46 65q0 44 58 72q-81 55 -81 152q0 82 60 136t149 54q53 0 100 -22l132 12v-77l-59 5q36 -47 36 -108q0 -81 -60 -135.5t-149 -54.5q-41 0 -76 12
q-29 -13 -29 -32q0 -34 98 -34zM299 444q-53 0 -90.5 -34t-37.5 -84t37.5 -83.5t90.5 -33.5q54 0 90.5 33.5t36.5 83.5q0 51 -36.5 84.5t-90.5 33.5zM311 -168q63 0 101.5 23t38.5 65q0 89 -182 89q-9 0 -29 2q-26 -12 -47.5 -36.5t-21.5 -51.5q0 -43 38 -67t102 -24z" />
    <glyph glyph-name="h" unicode="h" horiz-adv-x="626" 
d="M374 516q89 0 138.5 -57t49.5 -163v-296h-86v260q0 175 -132 175q-56 0 -96 -30t-56 -68.5t-16 -78.5v-258h-86v750h86v-332q82 98 198 98z" />
    <glyph glyph-name="i" unicode="i" horiz-adv-x="223" 
d="M111 590q-20 0 -34.5 14.5t-14.5 34.5q0 21 14.5 35t34.5 14q21 0 35 -14t14 -35q0 -20 -14 -34.5t-35 -14.5zM154 506v-506h-86v506h86z" />
    <glyph glyph-name="j" unicode="j" horiz-adv-x="247" 
d="M156 590q-20 0 -34.5 14.5t-14.5 34.5q0 21 14.5 35t34.5 14q21 0 35 -14t14 -35q0 -20 -14 -34.5t-35 -14.5zM199 506v-506l-80 -230h-89l84 236v500h85z" />
    <glyph glyph-name="k" unicode="k" horiz-adv-x="613" 
d="M553 506l-232 -220l232 -286h-107l-186 228l-84 -79v-149h-86v750h86v-487l257 243h120z" />
    <glyph glyph-name="l" unicode="l" horiz-adv-x="236" 
d="M176 750v-750h-86v750h86z" />
    <glyph glyph-name="m" unicode="m" horiz-adv-x="938" 
d="M700 516q79 0 123.5 -55t44.5 -146v-315h-86v289q0 67 -29 106.5t-83 39.5q-63 0 -103 -55.5t-45 -138.5v-241h-86v289q0 67 -29.5 106.5t-82.5 39.5q-63 0 -103 -55.5t-45 -138.5v-241h-86v506h81l4 -88q77 98 179 98q58 0 97.5 -30t57.5 -84q80 114 191 114z" />
    <glyph glyph-name="n" unicode="n" horiz-adv-x="626" 
d="M374 516q89 0 138.5 -57t49.5 -163v-296h-86v260q0 175 -132 175q-56 0 -96 -30t-56 -68.5t-16 -78.5v-258h-86v506h81l4 -88q83 98 199 98z" />
    <glyph glyph-name="o" unicode="o" horiz-adv-x="697" 
d="M359 -10q-114 0 -191.5 77t-77.5 187q0 109 77.5 185.5t191.5 76.5t191 -76.5t77 -185.5q0 -110 -76.5 -187t-191.5 -77zM359 71q77 0 129.5 53.5t52.5 129.5q0 74 -52.5 127.5t-129.5 53.5t-130 -53.5t-53 -127.5q0 -76 53 -129.5t130 -53.5z" />
    <glyph glyph-name="p" unicode="p" horiz-adv-x="706" 
d="M90 -230v736h81l5 -115q24 55 78.5 90t124.5 35q108 0 182.5 -76.5t74.5 -185.5q0 -110 -74.5 -187t-182.5 -77q-70 0 -124.5 35t-78.5 90v-345h-86zM184 254q0 -76 52.5 -129.5t129.5 -53.5t130.5 53.5t53.5 129.5q0 74 -53.5 127.5t-130.5 53.5q-76 0 -129 -53.5
t-53 -127.5z" />
    <glyph glyph-name="q" unicode="q" horiz-adv-x="706" 
d="M636 -230h-86v345q-25 -55 -79.5 -90t-124.5 -35q-108 0 -182 77t-74 187q0 109 74 185.5t182 76.5q70 0 124.5 -35t79.5 -90l5 115h81v-736zM541 254q0 74 -52.5 127.5t-129.5 53.5t-130 -53.5t-53 -127.5q0 -76 53 -129.5t130 -53.5t129.5 53.5t52.5 129.5z" />
    <glyph glyph-name="r" unicode="r" horiz-adv-x="386" 
d="M292 516q40 0 64 -22l-15 -75q-23 16 -54 16q-55 0 -83 -52.5t-28 -130.5v-252h-86v506h81l4 -64q53 74 117 74z" />
    <glyph glyph-name="s" unicode="s" horiz-adv-x="563" 
d="M90 140h86q22 -77 127 -77q46 0 75 18t29 48q0 9 -1.5 17t-6.5 15t-9 12.5t-14.5 11.5t-17 9.5t-22 10t-24.5 10t-30 11.5t-33 12q-65 22 -103.5 55t-38.5 88q0 61 51 98t120 37q79 0 129 -40t54 -103h-85q-4 33 -32 52t-64 19q-34 0 -61 -17t-27 -46q0 -8 1.5 -14.5
t6.5 -12.5t9 -10.5t13.5 -10t16 -9t21.5 -9.5t24 -9.5t28.5 -10.5t31.5 -12q75 -28 112 -64.5t37 -91.5q0 -62 -54 -99.5t-138 -37.5q-89 0 -145.5 39t-65.5 111z" />
    <glyph glyph-name="t" unicode="t" horiz-adv-x="372" 
d="M322 506v-81h-105v-425h-85v425h-72v81h72v150h85v-150h105z" />
    <glyph glyph-name="u" unicode="u" horiz-adv-x="626" 
d="M471 506h85v-506h-81l-3 89q-85 -99 -200 -99q-89 0 -138.5 57t-49.5 163v296h86v-260q0 -175 132 -175q56 0 96 30t56 68.5t16 78.5h1v258z" />
    <glyph glyph-name="v" unicode="v" horiz-adv-x="668" 
d="M512 506h96l-215 -506h-98l-215 506h96l168 -417z" />
    <glyph glyph-name="w" unicode="w" horiz-adv-x="960" 
d="M809 506h91l-183 -506h-90l-137 380l-138 -380h-89l-183 506h91l137 -401l136 401h91l137 -401z" />
    <glyph glyph-name="x" unicode="x" horiz-adv-x="655" 
d="M80 0l205 253l-205 253h106l152 -194l151 194h106l-205 -253l205 -253h-106l-151 194l-152 -194h-106z" />
    <glyph glyph-name="y" unicode="y" horiz-adv-x="670" 
d="M80 506h92l174 -399l172 399h92l-319 -736h-91l100 231z" />
    <glyph glyph-name="z" unicode="z" horiz-adv-x="559" 
d="M499 506v-81l-294 -344h294v-81h-409v81l295 344h-295v81h409z" />
    <glyph glyph-name="braceleft" unicode="{" horiz-adv-x="407" 
d="M327 710v-81q-20 0 -32.5 -0.5t-31 -5t-29.5 -12.5t-19 -24t-8 -38q0 -31 14.5 -87.5t14.5 -84.5t-13.5 -45t-32.5 -17q19 0 32.5 -17t13.5 -45t-14.5 -84.5t-14.5 -87.5q0 -22 8 -38t19 -24t29.5 -12.5t31 -5t32.5 -0.5v-81q-48 0 -81.5 5t-63.5 18t-45 40t-15 67
q0 42 15 103.5t15 84.5q0 36 -55 36v82q55 0 55 36q0 23 -15 84.5t-15 103.5q0 40 15 67t45 40t63.5 18t81.5 5z" />
    <glyph glyph-name="bar" unicode="|" horiz-adv-x="201" 
d="M72 -80v870h68v-870h-68z" />
    <glyph glyph-name="braceright" unicode="}" horiz-adv-x="392" 
d="M64 710q48 0 82 -5t64 -18t45 -40t15 -67q0 -42 -15 -103.5t-15 -84.5q0 -36 55 -36v-82q-55 0 -55 -36q0 -23 15 -84.5t15 -103.5q0 -40 -15 -67t-45 -40t-64 -18t-82 -5v81q20 0 32.5 0.5t31 5t29.5 12.5t19 24t8 38q0 31 -14.5 87.5t-14.5 84.5t13.5 45t33.5 17
q-20 0 -33.5 17t-13.5 45t14.5 84.5t14.5 87.5q0 22 -8 38t-19 24t-29.5 12.5t-31 5t-32.5 0.5v81z" />
    <glyph glyph-name="asciitilde" unicode="~" horiz-adv-x="614" 
d="M100 228q3 47 31.5 79t81.5 32q40 0 90 -36t80 -36q28 0 43 14.5t15 39.5l73 -13q-4 -48 -32 -79.5t-82 -31.5q-40 0 -90 36t-79 36q-27 0 -42.5 -15.5t-15.5 -38.5z" />
    <glyph glyph-name="exclamdown" unicode="&#xa1;" horiz-adv-x="223" 
d="M121 480q21 0 35 -14.5t14 -34.5q0 -21 -14 -35t-35 -14q-20 0 -34.5 14t-14.5 35q0 20 14.5 34.5t34.5 14.5zM82 276h77l5 -516h-86z" />
    <glyph glyph-name="cent" unicode="&#xa2;" horiz-adv-x="642" 
d="M520 372q-62 60 -139 63v-364q78 3 139 64v-84q-56 -54 -139 -60v-63h-29v62q-107 4 -179.5 80.5t-72.5 183.5q0 105 73 181.5t179 80.5v62h29v-63q83 -6 139 -60v-83zM190 254q0 -72 47.5 -122.5t114.5 -59.5v362q-67 -8 -114.5 -59t-47.5 -121z" />
    <glyph glyph-name="sterling" unicode="&#xa3;" horiz-adv-x="682" 
d="M458 71q70 0 124 36v-83q-52 -34 -124 -34q-46 0 -118 20t-115 20q-69 0 -125 -36v84q54 33 125 33q24 0 45 -3q-4 115 -53 178h-117v28h92q-92 105 -92 202q0 88 64.5 146t163.5 58q102 0 163 -67t61 -172h-85q0 72 -37 115t-105 43q-60 0 -99.5 -36t-39.5 -91
q0 -17 4.5 -34.5t8.5 -28.5t17 -31t18 -27t26 -32.5t26 -32.5l8 -12h175v-28h-156q42 -72 43 -199q62 -16 102 -16z" />
    <glyph glyph-name="currency" unicode="&#xa4;" horiz-adv-x="567" 
d="M415 418q40 -48 39 -109.5t-44 -107.5l57 -57l-20 -21l-59 58q-46 -35 -103 -34t-102 39l-62 -63l-21 21l63 62q-38 45 -39.5 102.5t33.5 103.5l-57 58l21 20l56 -56q46 43 108 44t110 -40l52 52l20 -20zM360 241q31 30 31 71t-31 72q-30 30 -71.5 30t-71.5 -30
q-30 -31 -30 -72t30 -71q30 -31 71.5 -31t71.5 31z" />
    <glyph glyph-name="yen" unicode="&#xa5;" horiz-adv-x="796" 
d="M441 296v-40h185v-28h-185v-42h185v-28h-185v-158h-86v158h-184v28h184v42h-184v28h184v40l-255 414h97l201 -325l201 325h97z" />
    <glyph glyph-name="brokenbar" unicode="&#xa6;" horiz-adv-x="201" 
d="M72 500v290h68v-290h-68zM72 -80v290h68v-290h-68z" />
    <glyph glyph-name="section" unicode="&#xa7;" horiz-adv-x="508" 
d="M334 242q93 -45 93 -120q0 -57 -41 -94.5t-112 -37.5q-77 0 -118 43t-46 103h68q10 -78 96 -78q37 0 61 18t24 49q0 57 -120 92q-27 8 -40 11.5t-38 15t-37.5 23.5t-23 33.5t-10.5 47.5q0 39 27 71t72 49q-84 46 -84 121q0 57 42 94t111 37q76 0 117.5 -43.5t46.5 -101.5
h-68q-5 35 -29 56t-67 21q-35 0 -60 -19t-25 -52q0 -62 109 -85q25 -6 42 -11t40.5 -16.5t38 -24.5t25 -34.5t10.5 -47.5q0 -38 -28.5 -70t-75.5 -50zM280 437q-50 -1 -86 -26t-36 -59q0 -55 79 -79h5q54 0 90.5 25t36.5 58q0 34 -24 52t-65 29z" />
    <glyph glyph-name="dieresis" unicode="&#xa8;" horiz-adv-x="463" 
d="M149 603q-20 0 -34.5 14.5t-14.5 34.5q0 21 14.5 35t34.5 14q21 0 35 -14t14 -35q0 -20 -14 -34.5t-35 -14.5zM314 603q-20 0 -34.5 14.5t-14.5 34.5q0 21 14.5 35t34.5 14q21 0 35 -14t14 -35q0 -20 -14 -34.5t-35 -14.5z" />
    <glyph glyph-name="copyright" unicode="&#xa9;" horiz-adv-x="960" 
d="M484 -10q-159 0 -271.5 112.5t-112.5 272.5t112.5 272.5t271.5 112.5q160 0 273 -112.5t113 -272.5t-113 -272.5t-273 -112.5zM484 58q131 0 224 93t93 224t-93 224t-224 93t-224 -93t-93 -224t93 -224t224 -93zM621 491q-60 53 -131 53q-70 0 -120.5 -48.5t-50.5 -119.5
q0 -72 50 -121t121 -49q72 0 131 54l27 -62q-73 -64 -167 -64q-95 0 -167 68.5t-72 173.5q0 103 72.5 171.5t166.5 68.5t167 -64z" />
    <glyph glyph-name="guillemotleft" unicode="&#xab;" horiz-adv-x="554" 
d="M318 410l-123 -171l123 -170h-95l-123 170l123 171h95zM474 410l-123 -171l123 -170h-95l-123 170l123 171h95z" />
    <glyph glyph-name="logicalnot" unicode="&#xac;" horiz-adv-x="566" 
d="M100 335h365v-172h-81v91h-284v81z" />
    <glyph glyph-name="registered" unicode="&#xae;" horiz-adv-x="960" 
d="M484 759q160 0 273 -112.5t113 -272.5t-113 -272.5t-273 -112.5q-159 0 -271.5 112.5t-112.5 272.5t112.5 272.5t271.5 112.5zM484 57q131 0 224 92.5t93 224.5q0 131 -93 224t-224 93t-224 -93t-93 -224q0 -132 93 -224.5t224 -92.5zM638 444q0 -49 -24 -82.5t-65 -46.5
l89 -137h-81l-78 129h-57v-129h-69v404h142q63 0 103 -37t40 -101zM495 375q33 0 54 17t21 52t-21 52.5t-54 17.5h-73v-139h73z" />
    <glyph glyph-name="macron" unicode="&#xaf;" horiz-adv-x="439" 
d="M100 692h235v-81h-235v81z" />
    <glyph glyph-name="degree" unicode="&#xb0;" horiz-adv-x="460" 
d="M245 390q-69 0 -117 48t-48 117t48 117t117 48t117 -48t48 -117t-48 -117t-117 -48zM245 454q43 0 72 29t29 72t-29 72t-72 29t-72 -29t-29 -72t29 -72t72 -29z" />
    <glyph glyph-name="plusminus" unicode="&#xb1;" horiz-adv-x="566" 
d="M323 380h142v-81h-142v-141h-81v141h-142v81h142v143h81v-143zM100 51v81h365v-81h-365z" />
    <glyph glyph-name="acute" unicode="&#xb4;" horiz-adv-x="374" 
d="M182 723h92l-106 -147h-68z" />
    <glyph glyph-name="paragraph" unicode="&#xb6;" horiz-adv-x="657" 
d="M100 483q0 107 69.5 167t177.5 60h68v-710h-68v257q-108 0 -177.5 59.5t-69.5 166.5zM489 710h68v-710h-68v710z" />
    <glyph glyph-name="periodcentered" unicode="&#xb7;" horiz-adv-x="169" 
d="M79 205q-20 0 -34.5 14.5t-14.5 34.5q0 21 14.5 35t34.5 14q21 0 35 -14t14 -35q0 -20 -14 -34.5t-35 -14.5z" />
    <glyph glyph-name="cedilla" unicode="&#xb8;" horiz-adv-x="382" 
d="M191 -49q41 -1 66 -18t25 -48q0 -82 -182 -82l17 42q114 0 114 39q0 29 -60 31l-49 -2l33 87h62z" />
    <glyph glyph-name="guillemotright" unicode="&#xbb;" horiz-adv-x="494" 
d="M135 410l123 -171l-123 -170h-95l123 170l-123 171h95zM291 410l123 -171l-123 -170h-95l123 170l-123 171h95z" />
    <glyph glyph-name="questiondown" unicode="&#xbf;" horiz-adv-x="486" 
d="M245 382q-20 0 -34.5 14t-14.5 35q0 20 14.5 34.5t34.5 14.5q21 0 35 -14.5t14 -34.5q0 -21 -14 -35t-35 -14zM375 -22h85q0 -105 -65.5 -166.5t-158.5 -61.5q-98 0 -156 56.5t-58 130.5q0 75 49 127.5t132 69.5l4 142h77l4 -199h-15q-78 0 -121.5 -34t-43.5 -94
q0 -51 34.5 -84.5t92.5 -33.5t99 39.5t41 107.5z" />
    <glyph glyph-name="Agrave" unicode="&#xc0;" horiz-adv-x="749" 
d="M419 816h-68l-106 147h92zM600 0l-63 175h-305l-63 -175h-89l256 710h97l256 -710h-89zM261 256h246l-123 342z" />
    <glyph glyph-name="Aacute" unicode="&#xc1;" horiz-adv-x="749" 
d="M524 963l-106 -147h-68l82 147h92zM600 0l-63 175h-305l-63 -175h-89l256 710h97l256 -710h-89zM261 256h246l-123 342z" />
    <glyph glyph-name="Acircumflex" unicode="&#xc2;" horiz-adv-x="749" 
d="M385 916l-68 -100h-79l112 147h69l112 -147h-79zM600 0l-63 175h-305l-63 -175h-89l256 710h97l256 -710h-89zM261 256h246l-123 342z" />
    <glyph glyph-name="Atilde" unicode="&#xc3;" horiz-adv-x="749" 
d="M308 889q-27 0 -42.5 -15.5t-15.5 -38.5l-73 13q3 47 31.5 79t81.5 32q40 0 90 -36t80 -36q28 0 43 14.5t15 39.5l73 -13q-4 -48 -32 -79.5t-82 -31.5q-40 0 -90 36t-79 36zM600 0l-63 175h-305l-63 -175h-89l256 710h97l256 -710h-89zM261 256h246l-123 342z" />
    <glyph glyph-name="Adieresis" unicode="&#xc4;" horiz-adv-x="749" 
d="M302 843q-20 0 -34.5 14.5t-14.5 34.5q0 21 14.5 35t34.5 14q21 0 35 -14t14 -35q0 -20 -14 -34.5t-35 -14.5zM467 843q-20 0 -34.5 14.5t-14.5 34.5q0 21 14.5 35t34.5 14q21 0 35 -14t14 -35q0 -20 -14 -34.5t-35 -14.5zM600 0l-63 175h-305l-63 -175h-89l256 710h97
l256 -710h-89zM261 256h246l-123 342z" />
    <glyph glyph-name="Aring" unicode="&#xc5;" horiz-adv-x="749" 
d="M384 821q-32 0 -54 22.5t-22 53.5t22 53.5t54 22.5t54 -22.5t22 -53.5t-22 -53.5t-54 -22.5zM384 931q-14 0 -24 -10t-10 -24t10 -24t24 -10t24 10t10 24t-10 24t-24 10zM600 0l-63 175h-305l-63 -175h-89l256 710h97l256 -710h-89zM261 256h246l-123 342z" />
    <glyph glyph-name="AE" unicode="&#xc6;" horiz-adv-x="980" 
d="M936 629h-295v-221h228v-81h-228v-246h295v-81h-381v177h-286l-96 -177h-93l383 710h473v-81zM555 629h-42l-200 -370h242v370z" />
    <glyph glyph-name="Ccedilla" unicode="&#xc7;" horiz-adv-x="724" 
d="M454 639q-116 0 -197 -82t-81 -202t81 -202t197 -82q119 0 200 77v-87q-73 -64 -186 -70l-21 -40q41 -1 66.5 -18t25.5 -48q0 -82 -182 -82l16 42q115 0 115 39q0 31 -60 31l-49 -2l30 79q-137 14 -228 117t-91 246q0 153 102.5 259t251.5 106q127 0 210 -71v-87
q-84 77 -200 77z" />
    <glyph glyph-name="Egrave" unicode="&#xc8;" horiz-adv-x="512" 
d="M301 816h-68l-106 147h92zM456 629h-295v-221h228v-81h-228v-246h295v-81h-380v710h380v-81z" />
    <glyph glyph-name="Eacute" unicode="&#xc9;" horiz-adv-x="512" 
d="M406 963l-106 -147h-68l82 147h92zM456 629h-295v-221h228v-81h-228v-246h295v-81h-380v710h380v-81z" />
    <glyph glyph-name="Ecircumflex" unicode="&#xca;" horiz-adv-x="512" 
d="M267 916l-68 -100h-79l112 147h69l112 -147h-79zM456 629h-295v-221h228v-81h-228v-246h295v-81h-380v710h380v-81z" />
    <glyph glyph-name="Edieresis" unicode="&#xcb;" horiz-adv-x="512" 
d="M184 843q-20 0 -34.5 14.5t-14.5 34.5q0 21 14.5 35t34.5 14q21 0 35 -14t14 -35q0 -20 -14 -34.5t-35 -14.5zM349 843q-20 0 -34.5 14.5t-14.5 34.5q0 21 14.5 35t34.5 14q21 0 35 -14t14 -35q0 -20 -14 -34.5t-35 -14.5zM456 629h-295v-221h228v-81h-228v-246h295v-81
h-380v710h380v-81z" />
    <glyph glyph-name="Igrave" unicode="&#xcc;" horiz-adv-x="226" 
d="M76 963l82 -147h-68l-106 147h92zM80 0v710h86v-710h-86z" />
    <glyph glyph-name="Iacute" unicode="&#xcd;" horiz-adv-x="226" 
d="M172 963h92l-106 -147h-68zM80 0v710h86v-710h-86z" />
    <glyph glyph-name="Icircumflex" unicode="&#xce;" horiz-adv-x="226" 
d="M159 963l112 -147h-79l-67 100l-68 -100h-79l112 147h69zM80 0v710h86v-710h-86z" />
    <glyph glyph-name="Idieresis" unicode="&#xcf;" horiz-adv-x="226" 
d="M41 843q-20 0 -34.5 14.5t-14.5 34.5q0 21 14.5 35t34.5 14q21 0 35 -14t14 -35q0 -20 -14 -34.5t-35 -14.5zM206 843q-20 0 -34.5 14.5t-14.5 34.5q0 21 14.5 35t34.5 14q21 0 35 -14t14 -35q0 -20 -14 -34.5t-35 -14.5zM80 0v710h86v-710h-86z" />
    <glyph glyph-name="Eth" unicode="&#xd0;" horiz-adv-x="697" 
d="M305 710q149 0 243 -101.5t94 -253.5t-94 -253.5t-243 -101.5h-229v314h-117v81h117v315h229zM305 81q110 0 180.5 75.5t70.5 198.5t-70.5 198.5t-180.5 75.5h-144v-234h163v-81h-163v-233h144z" />
    <glyph glyph-name="Ntilde" unicode="&#xd1;" horiz-adv-x="714" 
d="M296 889q-27 0 -42.5 -15.5t-15.5 -38.5l-73 13q3 47 31.5 79t81.5 32q40 0 90 -36t80 -36q28 0 43 14.5t15 39.5l73 -13q-4 -48 -32 -79.5t-82 -31.5q-40 0 -90 36t-79 36zM568 710h86v-710h-86l-402 565v-565h-86v710h86l402 -565v565z" />
    <glyph glyph-name="Ograve" unicode="&#xd2;" horiz-adv-x="877" 
d="M401 963l82 -147h-68l-106 147h92zM448 -10q-151 0 -254.5 106.5t-103.5 258.5t103.5 258.5t254.5 106.5t255 -106.5t104 -258.5t-104 -258.5t-255 -106.5zM448 71q115 0 194 83.5t79 200.5t-79 200.5t-194 83.5t-193.5 -83.5t-78.5 -200.5t78.5 -200.5t193.5 -83.5z" />
    <glyph glyph-name="Oacute" unicode="&#xd3;" horiz-adv-x="877" 
d="M496 963h92l-106 -147h-68zM448 -10q-151 0 -254.5 106.5t-103.5 258.5t103.5 258.5t254.5 106.5t255 -106.5t104 -258.5t-104 -258.5t-255 -106.5zM448 71q115 0 194 83.5t79 200.5t-79 200.5t-194 83.5t-193.5 -83.5t-78.5 -200.5t78.5 -200.5t193.5 -83.5z" />
    <glyph glyph-name="Ocircumflex" unicode="&#xd4;" horiz-adv-x="877" 
d="M449 916l-68 -100h-79l112 147h69l112 -147h-79zM448 720q151 0 255 -106.5t104 -258.5t-104 -258.5t-255 -106.5t-254.5 106.5t-103.5 258.5t103.5 258.5t254.5 106.5zM448 71q115 0 194 83.5t79 200.5t-79 200.5t-194 83.5t-193.5 -83.5t-78.5 -200.5t78.5 -200.5
t193.5 -83.5z" />
    <glyph glyph-name="Otilde" unicode="&#xd5;" horiz-adv-x="877" 
d="M241 848q3 47 31.5 79t81.5 32q40 0 90 -36t80 -36q28 0 43 14.5t15 39.5l73 -13q-4 -48 -32 -79.5t-82 -31.5q-40 0 -90 36t-79 36q-27 0 -42.5 -15.5t-15.5 -38.5zM448 -10q-151 0 -254.5 106.5t-103.5 258.5t103.5 258.5t254.5 106.5t255 -106.5t104 -258.5
t-104 -258.5t-255 -106.5zM448 71q115 0 194 83.5t79 200.5t-79 200.5t-194 83.5t-193.5 -83.5t-78.5 -200.5t78.5 -200.5t193.5 -83.5z" />
    <glyph glyph-name="Odieresis" unicode="&#xd6;" horiz-adv-x="877" 
d="M366 843q-20 0 -34.5 14.5t-14.5 34.5q0 21 14.5 35t34.5 14q21 0 35 -14t14 -35q0 -20 -14 -34.5t-35 -14.5zM531 843q-20 0 -34.5 14.5t-14.5 34.5q0 21 14.5 35t34.5 14q21 0 35 -14t14 -35q0 -20 -14 -34.5t-35 -14.5zM448 -10q-151 0 -254.5 106.5t-103.5 258.5
t103.5 258.5t254.5 106.5t255 -106.5t104 -258.5t-104 -258.5t-255 -106.5zM448 71q115 0 194 83.5t79 200.5t-79 200.5t-194 83.5t-193.5 -83.5t-78.5 -200.5t78.5 -200.5t193.5 -83.5z" />
    <glyph glyph-name="multiply" unicode="&#xd7;" horiz-adv-x="503" 
d="M409 386l-100 -100l100 -101l-58 -57l-100 100l-100 -100l-57 58l100 100l-101 100l58 57l100 -100l101 101z" />
    <glyph glyph-name="Oslash" unicode="&#xd8;" horiz-adv-x="877" 
d="M677 637q61 -51 95.5 -124.5t34.5 -157.5q0 -152 -104 -258.5t-255 -106.5q-117 0 -209 68l-74 -98h-36l87 115q-59 52 -92.5 124.5t-33.5 155.5q0 152 103.5 258.5t254.5 106.5q114 0 206 -65l72 95h36zM176 355q0 -128 91 -213l337 447q-71 50 -156 50
q-115 0 -193.5 -83.5t-78.5 -200.5zM448 71q115 0 194 83.5t79 200.5q0 131 -95 216l-337 -447q71 -53 159 -53z" />
    <glyph glyph-name="Ugrave" unicode="&#xd9;" horiz-adv-x="682" 
d="M304 963l82 -147h-68l-106 147h92zM627 292q0 -152 -73 -227t-203 -75t-202.5 75t-72.5 227v418h85v-418q0 -221 190 -221t190 221v418h86v-418z" />
    <glyph glyph-name="Uacute" unicode="&#xda;" horiz-adv-x="682" 
d="M399 963h92l-106 -147h-68zM627 292q0 -152 -73 -227t-203 -75t-202.5 75t-72.5 227v418h85v-418q0 -221 190 -221t190 221v418h86v-418z" />
    <glyph glyph-name="Ucircumflex" unicode="&#xdb;" horiz-adv-x="682" 
d="M352 916l-68 -100h-79l112 147h69l112 -147h-79zM541 710h86v-418q0 -152 -73 -227t-203 -75t-202.5 75t-72.5 227v418h85v-418q0 -221 190 -221t190 221v418z" />
    <glyph glyph-name="Udieresis" unicode="&#xdc;" horiz-adv-x="682" 
d="M269 843q-20 0 -34.5 14.5t-14.5 34.5q0 21 14.5 35t34.5 14q21 0 35 -14t14 -35q0 -20 -14 -34.5t-35 -14.5zM434 843q-20 0 -34.5 14.5t-14.5 34.5q0 21 14.5 35t34.5 14q21 0 35 -14t14 -35q0 -20 -14 -34.5t-35 -14.5zM627 292q0 -152 -73 -227t-203 -75t-202.5 75
t-72.5 227v418h85v-418q0 -221 190 -221t190 221v418h86v-418z" />
    <glyph glyph-name="Yacute" unicode="&#xdd;" horiz-adv-x="716" 
d="M508 963l-106 -147h-68l82 147h92zM569 710h97l-255 -414v-296h-86v296l-255 414h97l201 -326z" />
    <glyph glyph-name="Thorn" unicode="&#xde;" horiz-adv-x="579" 
d="M291 594q108 0 179.5 -61.5t71.5 -172.5q0 -110 -71.5 -171.5t-179.5 -61.5h-135v-127h-86v728h86v-134h135zM291 208q75 0 120.5 38.5t45.5 113.5t-45.5 113.5t-120.5 38.5h-135v-304h135z" />
    <glyph glyph-name="germandbls" unicode="&#xdf;" horiz-adv-x="656" 
d="M451 400q61 -28 98 -79t37 -119q0 -87 -52 -146t-150 -59q-77 0 -138 43v84q61 -46 125 -46t96.5 35.5t32.5 92.5q0 68 -47 107.5t-119 39.5h-25v73h25q45 0 65.5 29.5t20.5 65.5q0 48 -30.5 83t-84.5 35q-60 0 -94.5 -44t-34.5 -117v-478h-86v478q0 104 54.5 173
t162.5 69q93 0 146 -59t53 -129q0 -78 -55 -132z" />
    <glyph glyph-name="agrave" unicode="&#xe0;" horiz-adv-x="706" 
d="M314 759l82 -147h-68l-106 147h92zM90 254q0 109 74 185.5t182 76.5q69 0 124 -35t80 -90l4 115h82v-506h-82l-4 115q-25 -55 -80 -90t-124 -35q-108 0 -182 77t-74 187zM176 254q0 -76 53 -129.5t130 -53.5t129.5 53.5t52.5 129.5q0 74 -52.5 127.5t-129.5 53.5
t-130 -53.5t-53 -127.5z" />
    <glyph glyph-name="aacute" unicode="&#xe1;" horiz-adv-x="706" 
d="M410 759h92l-106 -147h-68zM90 254q0 109 74 185.5t182 76.5q69 0 124 -35t80 -90l4 115h82v-506h-82l-4 115q-25 -55 -80 -90t-124 -35q-108 0 -182 77t-74 187zM176 254q0 -76 53 -129.5t130 -53.5t129.5 53.5t52.5 129.5q0 74 -52.5 127.5t-129.5 53.5t-130 -53.5
t-53 -127.5z" />
    <glyph glyph-name="acircumflex" unicode="&#xe2;" horiz-adv-x="706" 
d="M363 712l-68 -100h-79l112 147h69l112 -147h-79zM554 506h82v-506h-82l-4 115q-25 -55 -80 -90t-124 -35q-108 0 -182 77t-74 187q0 109 74 185.5t182 76.5q69 0 124 -35t80 -90zM359 71q77 0 129.5 53.5t52.5 129.5q0 74 -52.5 127.5t-129.5 53.5t-130 -53.5t-53 -127.5
q0 -76 53 -129.5t130 -53.5z" />
    <glyph glyph-name="atilde" unicode="&#xe3;" horiz-adv-x="706" 
d="M155 644q3 47 31.5 79t81.5 32q40 0 90 -36t80 -36q28 0 43 14.5t15 39.5l73 -13q-4 -48 -32 -79.5t-82 -31.5q-40 0 -90 36t-79 36q-27 0 -42.5 -15.5t-15.5 -38.5zM90 254q0 109 74 185.5t182 76.5q69 0 124 -35t80 -90l4 115h82v-506h-82l-4 115q-25 -55 -80 -90
t-124 -35q-108 0 -182 77t-74 187zM176 254q0 -76 53 -129.5t130 -53.5t129.5 53.5t52.5 129.5q0 74 -52.5 127.5t-129.5 53.5t-130 -53.5t-53 -127.5z" />
    <glyph glyph-name="adieresis" unicode="&#xe4;" horiz-adv-x="706" 
d="M280 639q-20 0 -34.5 14.5t-14.5 34.5q0 21 14.5 35t34.5 14q21 0 35 -14t14 -35q0 -20 -14 -34.5t-35 -14.5zM445 639q-20 0 -34.5 14.5t-14.5 34.5q0 21 14.5 35t34.5 14q21 0 35 -14t14 -35q0 -20 -14 -34.5t-35 -14.5zM90 254q0 109 74 185.5t182 76.5q69 0 124 -35
t80 -90l4 115h82v-506h-82l-4 115q-25 -55 -80 -90t-124 -35q-108 0 -182 77t-74 187zM176 254q0 -76 53 -129.5t130 -53.5t129.5 53.5t52.5 129.5q0 74 -52.5 127.5t-129.5 53.5t-130 -53.5t-53 -127.5z" />
    <glyph glyph-name="aring" unicode="&#xe5;" horiz-adv-x="706" 
d="M362 617q-32 0 -54 22.5t-22 53.5t22 53.5t54 22.5t54 -22.5t22 -53.5t-22 -53.5t-54 -22.5zM362 659q14 0 24 10t10 24t-10 24t-24 10t-24 -10t-10 -24t10 -24t24 -10zM90 254q0 109 74 185.5t182 76.5q69 0 124 -35t80 -90l4 115h82v-506h-82l-4 115q-25 -55 -80 -90
t-124 -35q-108 0 -182 77t-74 187zM176 254q0 -76 53 -129.5t130 -53.5t129.5 53.5t52.5 129.5q0 74 -52.5 127.5t-129.5 53.5t-130 -53.5t-53 -127.5z" />
    <glyph glyph-name="ae" unicode="&#xe6;" horiz-adv-x="1169" 
d="M1099 248v-22h-421q2 -69 50.5 -114t125.5 -45q57 0 96.5 26t58.5 64l75 -10q-16 -60 -77.5 -108.5t-152.5 -48.5q-70 0 -127 30.5t-91 83.5v-104h-82l-4 115q-25 -55 -80 -90t-124 -35q-108 0 -182 77t-74 187q0 109 74 185.5t182 76.5q69 0 124 -35t80 -90l4 115h82
v-102q33 52 87.5 82t122.5 30q113 0 183 -78.5t70 -189.5zM846 439q-70 0 -117.5 -44t-50.5 -107h335q-5 62 -50.5 106.5t-116.5 44.5zM359 71q77 0 129.5 53.5t52.5 129.5q0 74 -52.5 127.5t-129.5 53.5t-130 -53.5t-53 -127.5q0 -76 53 -129.5t130 -53.5z" />
    <glyph glyph-name="ccedilla" unicode="&#xe7;" horiz-adv-x="580" 
d="M365 435q-74 0 -129.5 -52.5t-55.5 -128.5q0 -78 55 -130.5t130 -52.5q81 0 145 64v-84q-57 -57 -146 -61l-21 -39q41 -1 66.5 -18t25.5 -48q0 -82 -182 -82l16 42q115 0 115 39q0 31 -60 31l-49 -2l31 81q-94 17 -155 90t-61 170q0 108 76 185t186 77q95 0 158 -61v-83
q-65 63 -145 63z" />
    <glyph glyph-name="egrave" unicode="&#xe8;" horiz-adv-x="666" 
d="M377 612h-68l-106 147h92zM596 248v-22h-420q2 -70 50 -114.5t125 -44.5q58 0 97 26t58 64l76 -10q-17 -60 -78 -108.5t-153 -48.5q-114 0 -187.5 75.5t-73.5 190.5q0 109 71.5 184.5t181.5 75.5q113 0 183 -78.5t70 -189.5zM343 439q-70 0 -117.5 -44t-49.5 -107h334
q-4 62 -50 106.5t-117 44.5z" />
    <glyph glyph-name="eacute" unicode="&#xe9;" horiz-adv-x="666" 
d="M483 759l-106 -147h-68l82 147h92zM596 248v-22h-420q2 -70 50 -114.5t125 -44.5q58 0 97 26t58 64l76 -10q-17 -60 -78 -108.5t-153 -48.5q-114 0 -187.5 75.5t-73.5 190.5q0 109 71.5 184.5t181.5 75.5q113 0 183 -78.5t70 -189.5zM343 439q-70 0 -117.5 -44
t-49.5 -107h334q-4 62 -50 106.5t-117 44.5z" />
    <glyph glyph-name="ecircumflex" unicode="&#xea;" horiz-adv-x="666" 
d="M344 712l-68 -100h-79l112 147h69l112 -147h-79zM596 248v-22h-420q2 -70 50 -114.5t125 -44.5q58 0 97 26t58 64l76 -10q-17 -60 -78 -108.5t-153 -48.5q-114 0 -187.5 75.5t-73.5 190.5q0 109 71.5 184.5t181.5 75.5q113 0 183 -78.5t70 -189.5zM343 439
q-70 0 -117.5 -44t-49.5 -107h334q-4 62 -50 106.5t-117 44.5z" />
    <glyph glyph-name="edieresis" unicode="&#xeb;" horiz-adv-x="666" 
d="M261 639q-20 0 -34.5 14.5t-14.5 34.5q0 21 14.5 35t34.5 14q21 0 35 -14t14 -35q0 -20 -14 -34.5t-35 -14.5zM426 639q-20 0 -34.5 14.5t-14.5 34.5q0 21 14.5 35t34.5 14q21 0 35 -14t14 -35q0 -20 -14 -34.5t-35 -14.5zM596 248v-22h-420q2 -70 50 -114.5t125 -44.5
q58 0 97 26t58 64l76 -10q-17 -60 -78 -108.5t-153 -48.5q-114 0 -187.5 75.5t-73.5 190.5q0 109 71.5 184.5t181.5 75.5q113 0 183 -78.5t70 -189.5zM343 439q-70 0 -117.5 -44t-49.5 -107h334q-4 62 -50 106.5t-117 44.5z" />
    <glyph glyph-name="igrave" unicode="&#xec;" horiz-adv-x="206" 
d="M56 759l82 -147h-68l-106 147h92zM146 506v-506h-86v506h86z" />
    <glyph glyph-name="iacute" unicode="&#xed;" horiz-adv-x="206" 
d="M151 759h92l-106 -147h-68zM146 506v-506h-86v506h86z" />
    <glyph glyph-name="icircumflex" unicode="&#xee;" horiz-adv-x="206" 
d="M139 759l112 -147h-79l-67 100l-68 -100h-79l112 147h69zM60 0v506h86v-506h-86z" />
    <glyph glyph-name="idieresis" unicode="&#xef;" horiz-adv-x="206" 
d="M21 591q-21 0 -35 14.5t-14 34.5q0 21 14 35t35 14t35 -14t14 -35q0 -20 -14 -34.5t-35 -14.5zM186 591q-20 0 -34.5 14.5t-14.5 34.5q0 21 14.5 35t34.5 14q21 0 35 -14t14 -35q0 -20 -14 -34.5t-35 -14.5zM146 506v-506h-86v506h86z" />
    <glyph glyph-name="eth" unicode="&#xf0;" horiz-adv-x="654" 
d="M393 627q90 -61 140.5 -159t50.5 -227q0 -108 -71 -179.5t-177 -71.5q-104 0 -175 69.5t-71 168.5q0 98 71.5 168t174.5 70q62 0 116 -27q-40 86 -128 136l-119 -90v36l90 68q-60 27 -140 40v81q118 -11 212 -67l106 80v-36zM498 228q0 8 -2 22l-7 1q0 21 -1 30
q-17 46 -58 75t-94 29q-67 0 -113.5 -46t-46.5 -111t46.5 -111t113.5 -46q68 0 115 46t47 111z" />
    <glyph glyph-name="ntilde" unicode="&#xf1;" horiz-adv-x="626" 
d="M248 685q-27 0 -42.5 -15.5t-15.5 -38.5l-73 13q3 47 31.5 79t81.5 32q40 0 90 -36t80 -36q28 0 43 14.5t15 39.5l73 -13q-4 -48 -32 -79.5t-82 -31.5q-40 0 -90 36t-79 36zM374 516q89 0 138.5 -57t49.5 -163v-296h-86v260q0 175 -132 175q-56 0 -96 -30t-56 -68.5
t-16 -78.5v-258h-86v506h81l4 -88q83 98 199 98z" />
    <glyph glyph-name="ograve" unicode="&#xf2;" horiz-adv-x="697" 
d="M312 759l82 -147h-68l-106 147h92zM359 -10q-114 0 -191.5 77t-77.5 187q0 109 77.5 185.5t191.5 76.5t191 -76.5t77 -185.5q0 -110 -76.5 -187t-191.5 -77zM359 71q77 0 129.5 53.5t52.5 129.5q0 74 -52.5 127.5t-129.5 53.5t-130 -53.5t-53 -127.5q0 -76 53 -129.5
t130 -53.5z" />
    <glyph glyph-name="oacute" unicode="&#xf3;" horiz-adv-x="697" 
d="M408 759h92l-106 -147h-68zM359 -10q-114 0 -191.5 77t-77.5 187q0 109 77.5 185.5t191.5 76.5t191 -76.5t77 -185.5q0 -110 -76.5 -187t-191.5 -77zM359 71q77 0 129.5 53.5t52.5 129.5q0 74 -52.5 127.5t-129.5 53.5t-130 -53.5t-53 -127.5q0 -76 53 -129.5t130 -53.5z
" />
    <glyph glyph-name="ocircumflex" unicode="&#xf4;" horiz-adv-x="697" 
d="M361 712l-68 -100h-79l112 147h69l112 -147h-79zM359 516q114 0 191 -76.5t77 -185.5q0 -110 -76.5 -187t-191.5 -77q-114 0 -191.5 77t-77.5 187q0 109 77.5 185.5t191.5 76.5zM359 71q77 0 129.5 53.5t52.5 129.5q0 74 -52.5 127.5t-129.5 53.5t-130 -53.5t-53 -127.5
q0 -76 53 -129.5t130 -53.5z" />
    <glyph glyph-name="otilde" unicode="&#xf5;" horiz-adv-x="697" 
d="M153 644q3 47 31.5 79t81.5 32q40 0 90 -36t80 -36q28 0 43 14.5t15 39.5l73 -13q-4 -48 -32 -79.5t-82 -31.5q-40 0 -90 36t-79 36q-27 0 -42.5 -15.5t-15.5 -38.5zM359 -10q-114 0 -191.5 77t-77.5 187q0 109 77.5 185.5t191.5 76.5t191 -76.5t77 -185.5
q0 -110 -76.5 -187t-191.5 -77zM359 71q77 0 129.5 53.5t52.5 129.5q0 74 -52.5 127.5t-129.5 53.5t-130 -53.5t-53 -127.5q0 -76 53 -129.5t130 -53.5z" />
    <glyph glyph-name="odieresis" unicode="&#xf6;" horiz-adv-x="697" 
d="M278 639q-20 0 -34.5 14.5t-14.5 34.5q0 21 14.5 35t34.5 14q21 0 35 -14t14 -35q0 -20 -14 -34.5t-35 -14.5zM443 639q-20 0 -34.5 14.5t-14.5 34.5q0 21 14.5 35t34.5 14q21 0 35 -14t14 -35q0 -20 -14 -34.5t-35 -14.5zM359 -10q-114 0 -191.5 77t-77.5 187
q0 109 77.5 185.5t191.5 76.5t191 -76.5t77 -185.5q0 -110 -76.5 -187t-191.5 -77zM359 71q77 0 129.5 53.5t52.5 129.5q0 74 -52.5 127.5t-129.5 53.5t-130 -53.5t-53 -127.5q0 -76 53 -129.5t130 -53.5z" />
    <glyph glyph-name="divide" unicode="&#xf7;" horiz-adv-x="561" 
d="M292 376q-21 0 -35 14.5t-14 34.5q0 21 14 35.5t35 14.5q20 0 34.5 -14.5t14.5 -35.5q0 -20 -14.5 -34.5t-34.5 -14.5zM109 326h365v-81h-365v81zM292 89q-21 0 -35 14t-14 35t14 35t35 14q20 0 34.5 -14t14.5 -35t-14.5 -35t-34.5 -14z" />
    <glyph glyph-name="oslash" unicode="&#xf8;" horiz-adv-x="696" 
d="M530 456q96 -77 96 -202q0 -110 -76.5 -187t-190.5 -77q-82 0 -150 43l-38 -51h-36l51 68q-45 37 -70.5 90t-25.5 114q0 109 77.5 185.5t191.5 76.5q83 0 148 -43l38 51h36zM175 254q0 -83 62 -137l220 290q-44 28 -98 28q-77 0 -130.5 -53.5t-53.5 -127.5zM359 71
q77 0 129.5 53.5t52.5 129.5q0 81 -61 136l-220 -291q44 -28 99 -28z" />
    <glyph glyph-name="ugrave" unicode="&#xf9;" horiz-adv-x="626" 
d="M362 612h-68l-106 147h92zM471 506h85v-506h-81l-3 89q-85 -99 -200 -99q-89 0 -138.5 57t-49.5 163v296h86v-260q0 -175 132 -175q56 0 96 30t56 68.5t16 78.5h1v258z" />
    <glyph glyph-name="uacute" unicode="&#xfa;" horiz-adv-x="626" 
d="M468 759l-106 -147h-68l82 147h92zM471 506h85v-506h-81l-3 89q-85 -99 -200 -99q-89 0 -138.5 57t-49.5 163v296h86v-260q0 -175 132 -175q56 0 96 30t56 68.5t16 78.5h1v258z" />
    <glyph glyph-name="ucircumflex" unicode="&#xfb;" horiz-adv-x="626" 
d="M329 712l-68 -100h-79l112 147h69l112 -147h-79zM471 506h85v-506h-81l-3 89q-85 -99 -200 -99q-89 0 -138.5 57t-49.5 163v296h86v-260q0 -175 132 -175q56 0 96 30t56 68.5t16 78.5h1v258z" />
    <glyph glyph-name="udieresis" unicode="&#xfc;" horiz-adv-x="626" 
d="M246 639q-20 0 -34.5 14.5t-14.5 34.5q0 21 14.5 35t34.5 14q21 0 35 -14t14 -35q0 -20 -14 -34.5t-35 -14.5zM411 639q-20 0 -34.5 14.5t-14.5 34.5q0 21 14.5 35t34.5 14q21 0 35 -14t14 -35q0 -20 -14 -34.5t-35 -14.5zM471 506h85v-506h-81l-3 89q-85 -99 -200 -99
q-89 0 -138.5 57t-49.5 163v296h86v-260q0 -175 132 -175q56 0 96 30t56 68.5t16 78.5h1v258z" />
    <glyph glyph-name="yacute" unicode="&#xfd;" horiz-adv-x="670" 
d="M397 759h92l-106 -147h-68zM80 506h92l174 -399l172 399h92l-319 -736h-91l100 231z" />
    <glyph glyph-name="thorn" unicode="&#xfe;" horiz-adv-x="697" 
d="M90 -230v980h86v-354q23 54 76.5 87t118.5 33q108 0 182 -76.5t74 -185.5q0 -110 -74 -187t-182 -77q-65 0 -118.5 33.5t-76.5 87.5v-341h-86zM171 254q0 -76 52.5 -129.5t129.5 -53.5t130.5 53.5t53.5 129.5q0 74 -53.5 127.5t-130.5 53.5q-76 0 -129 -53.5t-53 -127.5z
" />
    <glyph glyph-name="ydieresis" unicode="&#xff;" horiz-adv-x="670" 
d="M267 639q-20 0 -34.5 14.5t-14.5 34.5q0 21 14.5 35t34.5 14q21 0 35 -14t14 -35q0 -20 -14 -34.5t-35 -14.5zM432 639q-20 0 -34.5 14.5t-14.5 34.5q0 21 14.5 35t34.5 14q21 0 35 -14t14 -35q0 -20 -14 -34.5t-35 -14.5zM80 506h92l174 -399l172 399h92l-319 -736h-91
l100 231z" />
    <glyph glyph-name="Amacron" unicode="&#x100;" horiz-adv-x="749" 
d="M501 932v-81h-236v81h236zM600 0l-63 175h-305l-63 -175h-89l256 710h97l256 -710h-89zM261 256h246l-123 342z" />
    <glyph glyph-name="amacron" unicode="&#x101;" horiz-adv-x="706" 
d="M243 728h236v-81h-236v81zM90 254q0 109 74 185.5t182 76.5q69 0 124 -35t80 -90l4 115h82v-506h-82l-4 115q-25 -55 -80 -90t-124 -35q-108 0 -182 77t-74 187zM176 254q0 -76 53 -129.5t130 -53.5t129.5 53.5t52.5 129.5q0 74 -52.5 127.5t-129.5 53.5t-130 -53.5
t-53 -127.5z" />
    <glyph glyph-name="Abreve" unicode="&#x102;" horiz-adv-x="749" 
d="M384 816q-71 0 -120 41t-49 106h68q0 -33 25 -60.5t76 -27.5t76 27.5t25 60.5h68q0 -65 -49 -106t-120 -41zM600 0l-63 175h-305l-63 -175h-89l256 710h97l256 -710h-89zM261 256h246l-123 342z" />
    <glyph glyph-name="abreve" unicode="&#x103;" horiz-adv-x="706" 
d="M531 759q0 -65 -49 -106t-120 -41t-120 41t-49 106h68q0 -33 25 -60.5t76 -27.5t76 27.5t25 60.5h68zM90 254q0 109 74 185.5t182 76.5q69 0 124 -35t80 -90l4 115h82v-506h-82l-4 115q-25 -55 -80 -90t-124 -35q-108 0 -182 77t-74 187zM176 254q0 -76 53 -129.5
t130 -53.5t129.5 53.5t52.5 129.5q0 74 -52.5 127.5t-129.5 53.5t-130 -53.5t-53 -127.5z" />
    <glyph glyph-name="Aogonek" unicode="&#x104;" horiz-adv-x="749" 
d="M677 -93q33 0 78 27v-69q-39 -39 -93 -39q-38 0 -63 25.5t-23.5 67t34.5 81.5h-10l-63 175h-305l-63 -175h-89l256 710h97l256 -710h-11q-22 -22 -29.5 -44t0.5 -35.5t28 -13.5zM261 256h246l-123 342z" />
    <glyph glyph-name="aogonek" unicode="&#x105;" horiz-adv-x="706" 
d="M630 -93q33 0 78 27v-69q-39 -39 -93 -39q-38 0 -63 25.5t-23.5 67t34.5 81.5h-9l-4 115q-25 -55 -80 -90t-124 -35q-108 0 -182 77t-74 187q0 109 74 185.5t182 76.5q69 0 124 -35t80 -90l4 115h82v-506h-5q-22 -22 -29.5 -44t0.5 -35.5t28 -13.5zM359 71
q77 0 129.5 53.5t52.5 129.5q0 74 -52.5 127.5t-129.5 53.5t-130 -53.5t-53 -127.5q0 -76 53 -129.5t130 -53.5z" />
    <glyph glyph-name="Cacute" unicode="&#x106;" horiz-adv-x="724" 
d="M486 963h92l-106 -147h-68zM654 562q-84 77 -200 77t-197 -82t-81 -202t81 -202t197 -82q119 0 200 77v-87q-83 -71 -210 -71q-149 0 -251.5 106t-102.5 259t102.5 259t251.5 106q127 0 210 -71v-87z" />
    <glyph glyph-name="cacute" unicode="&#x107;" horiz-adv-x="580" 
d="M391 759h92l-106 -147h-68zM510 372q-65 63 -145 63q-74 0 -129.5 -52.5t-55.5 -128.5q0 -78 55 -130.5t130 -52.5q81 0 145 64v-84q-63 -61 -158 -61q-110 0 -186 77.5t-76 186.5q0 108 76 185t186 77q95 0 158 -61v-83z" />
    <glyph glyph-name="Cdotaccent" unicode="&#x10a;" horiz-adv-x="724" 
d="M438 843q-20 0 -34.5 14.5t-14.5 34.5q0 21 14.5 35t34.5 14q21 0 35 -14t14 -35q0 -20 -14 -34.5t-35 -14.5zM654 562q-84 77 -200 77t-197 -82t-81 -202t81 -202t197 -82q119 0 200 77v-87q-83 -71 -210 -71q-149 0 -251.5 106t-102.5 259t102.5 259t251.5 106
q127 0 210 -71v-87z" />
    <glyph glyph-name="cdotaccent" unicode="&#x10b;" horiz-adv-x="580" 
d="M343 639q-20 0 -34.5 14.5t-14.5 34.5q0 21 14.5 35t34.5 14q21 0 35 -14t14 -35q0 -20 -14 -34.5t-35 -14.5zM510 372q-65 63 -145 63q-74 0 -129.5 -52.5t-55.5 -128.5q0 -78 55 -130.5t130 -52.5q81 0 145 64v-84q-63 -61 -158 -61q-110 0 -186 77.5t-76 186.5
q0 108 76 185t186 77q95 0 158 -61v-83z" />
    <glyph glyph-name="Ccaron" unicode="&#x10c;" horiz-adv-x="724" 
d="M402 816l-112 147h79l68 -100l67 100h79l-112 -147h-69zM454 639q-116 0 -197 -82t-81 -202t81 -202t197 -82q119 0 200 77v-87q-83 -71 -210 -71q-149 0 -251.5 106t-102.5 259t102.5 259t251.5 106q127 0 210 -71v-87q-84 77 -200 77z" />
    <glyph glyph-name="ccaron" unicode="&#x10d;" horiz-adv-x="580" 
d="M307 612l-112 147h79l68 -100l67 100h79l-112 -147h-69zM365 435q-74 0 -129.5 -52.5t-55.5 -128.5q0 -78 55 -130.5t130 -52.5q81 0 145 64v-84q-63 -61 -158 -61q-110 0 -186 77.5t-76 186.5q0 108 76 185t186 77q95 0 158 -61v-83q-65 63 -145 63z" />
    <glyph glyph-name="Dcaron" unicode="&#x10e;" horiz-adv-x="697" 
d="M267 816l-112 147h79l68 -100l67 100h79l-112 -147h-69zM305 710q149 0 243 -101.5t94 -253.5t-94 -253.5t-243 -101.5h-229v710h229zM305 81q110 0 180.5 75.5t70.5 198.5t-70.5 198.5t-180.5 75.5h-144v-548h144z" />
    <glyph glyph-name="dcaron" unicode="&#x10f;" horiz-adv-x="752" 
d="M90 254q0 109 74 185.5t182 76.5q69 0 124 -35t80 -90v359h86v-750h-82l-4 115q-25 -55 -80 -90t-124 -35q-108 0 -182 77t-74 187zM718 727h92l-68 -191h-69zM176 254q0 -76 53 -129.5t130 -53.5t129.5 53.5t52.5 129.5q0 74 -52.5 127.5t-129.5 53.5t-130 -53.5
t-53 -127.5z" />
    <glyph glyph-name="Dcroat" unicode="&#x110;" horiz-adv-x="697" 
d="M305 710q149 0 243 -101.5t94 -253.5t-94 -253.5t-243 -101.5h-229v314h-117v81h117v315h229zM305 81q110 0 180.5 75.5t70.5 198.5t-70.5 198.5t-180.5 75.5h-144v-234h163v-81h-163v-233h144z" />
    <glyph glyph-name="dcroat" unicode="&#x111;" horiz-adv-x="706" 
d="M702 650v-81h-66v-569h-82l-4 115q-25 -55 -80 -90t-124 -35q-108 0 -182 77t-74 187q0 109 74 185.5t182 76.5q69 0 124 -35t80 -90v178h-213v81h213v100h86v-100h66zM359 71q77 0 129.5 53.5t52.5 129.5q0 74 -52.5 127.5t-129.5 53.5t-130 -53.5t-53 -127.5
q0 -76 53 -129.5t130 -53.5z" />
    <glyph glyph-name="Emacron" unicode="&#x112;" horiz-adv-x="512" 
d="M383 932v-81h-236v81h236zM456 629h-295v-221h228v-81h-228v-246h295v-81h-380v710h380v-81z" />
    <glyph glyph-name="emacron" unicode="&#x113;" horiz-adv-x="666" 
d="M460 728v-81h-236v81h236zM596 248v-22h-420q2 -70 50 -114.5t125 -44.5q58 0 97 26t58 64l76 -10q-17 -60 -78 -108.5t-153 -48.5q-114 0 -187.5 75.5t-73.5 190.5q0 109 71.5 184.5t181.5 75.5q113 0 183 -78.5t70 -189.5zM343 439q-70 0 -117.5 -44t-49.5 -107h334
q-4 62 -50 106.5t-117 44.5z" />
    <glyph glyph-name="Edotaccent" unicode="&#x116;" horiz-adv-x="512" 
d="M266 843q-20 0 -34.5 14.5t-14.5 34.5q0 21 14.5 35t34.5 14q21 0 35 -14t14 -35q0 -20 -14 -34.5t-35 -14.5zM456 629h-295v-221h228v-81h-228v-246h295v-81h-380v710h380v-81z" />
    <glyph glyph-name="edotaccent" unicode="&#x117;" horiz-adv-x="666" 
d="M343 639q-20 0 -34.5 14.5t-14.5 34.5q0 21 14.5 35t34.5 14q21 0 35 -14t14 -35q0 -20 -14 -34.5t-35 -14.5zM596 248v-22h-420q2 -70 50 -114.5t125 -44.5q58 0 97 26t58 64l76 -10q-17 -60 -78 -108.5t-153 -48.5q-114 0 -187.5 75.5t-73.5 190.5q0 109 71.5 184.5
t181.5 75.5q113 0 183 -78.5t70 -189.5zM343 439q-70 0 -117.5 -44t-49.5 -107h334q-4 62 -50 106.5t-117 44.5z" />
    <glyph glyph-name="Eogonek" unicode="&#x118;" horiz-adv-x="512" 
d="M456 629h-295v-221h228v-81h-228v-246h295v-81h-97q-22 -22 -29.5 -44t0.5 -35.5t28 -13.5q33 0 78 27v-69q-39 -39 -93 -39q-38 0 -63 25.5t-23.5 67t34.5 81.5h-215v710h380v-81z" />
    <glyph glyph-name="eogonek" unicode="&#x119;" horiz-adv-x="666" 
d="M596 248v-22h-420q2 -70 50 -114.5t125 -44.5q58 0 97 26t58 64l76 -10q-15 -55 -69 -101.5t-134 -54.5q-18 -20 -23 -40t3 -32t27 -12q33 0 78 27v-69q-39 -39 -93 -39q-37 0 -62 25.5t-25 62t29 78.5q-99 13 -161 86t-62 178q0 109 71.5 184.5t181.5 75.5
q113 0 183 -78.5t70 -189.5zM343 439q-70 0 -117.5 -44t-49.5 -107h334q-4 62 -50 106.5t-117 44.5z" />
    <glyph glyph-name="Ecaron" unicode="&#x11a;" horiz-adv-x="512" 
d="M230 816l-112 147h79l68 -100l67 100h79l-112 -147h-69zM456 629h-295v-221h228v-81h-228v-246h295v-81h-380v710h380v-81z" />
    <glyph glyph-name="ecaron" unicode="&#x11b;" horiz-adv-x="666" 
d="M307 612l-112 147h79l68 -100l67 100h79l-112 -147h-69zM596 248v-22h-420q2 -70 50 -114.5t125 -44.5q58 0 97 26t58 64l76 -10q-17 -60 -78 -108.5t-153 -48.5q-114 0 -187.5 75.5t-73.5 190.5q0 109 71.5 184.5t181.5 75.5q113 0 183 -78.5t70 -189.5zM343 439
q-70 0 -117.5 -44t-49.5 -107h334q-4 62 -50 106.5t-117 44.5z" />
    <glyph glyph-name="Gbreve" unicode="&#x11e;" horiz-adv-x="865" 
d="M445 816q-71 0 -120 41t-49 106h68q0 -33 25 -60.5t76 -27.5t76 27.5t25 60.5h68q0 -65 -49 -106t-120 -41zM421 380h374q0 -175 -98 -282.5t-257 -107.5q-150 0 -250 107t-100 258q0 152 101.5 258.5t257.5 106.5q173 0 281 -148l-66 -50q-82 117 -215 117
q-118 0 -195.5 -82.5t-77.5 -201.5t75 -201.5t189 -82.5q105 0 176.5 63t88.5 165h-284v81z" />
    <glyph glyph-name="gbreve" unicode="&#x11f;" horiz-adv-x="602" 
d="M299 611q-71 0 -120 41t-49 106h68q0 -33 25 -60.5t76 -27.5t76 27.5t25 60.5h68q0 -65 -49 -106t-120 -41zM292 82q112 0 176 -43.5t64 -117.5q0 -75 -63.5 -118t-157.5 -43t-157.5 43t-63.5 118q0 73 69 116q-46 26 -46 65q0 44 58 72q-81 55 -81 152q0 82 60 136
t149 54q53 0 100 -22l132 12v-77l-59 5q36 -47 36 -108q0 -81 -60 -135.5t-149 -54.5q-41 0 -76 12q-29 -13 -29 -32q0 -34 98 -34zM299 444q-53 0 -90.5 -34t-37.5 -84t37.5 -83.5t90.5 -33.5q54 0 90.5 33.5t36.5 83.5q0 51 -36.5 84.5t-90.5 33.5zM311 -168
q63 0 101.5 23t38.5 65q0 89 -182 89q-9 0 -29 2q-26 -12 -47.5 -36.5t-21.5 -51.5q0 -43 38 -67t102 -24z" />
    <glyph glyph-name="Gdotaccent" unicode="&#x120;" horiz-adv-x="865" 
d="M445 843q-20 0 -34.5 14.5t-14.5 34.5q0 21 14.5 35t34.5 14q21 0 35 -14t14 -35q0 -20 -14 -34.5t-35 -14.5zM421 380h374q0 -175 -98 -282.5t-257 -107.5q-150 0 -250 107t-100 258q0 152 101.5 258.5t257.5 106.5q173 0 281 -148l-66 -50q-82 117 -215 117
q-118 0 -195.5 -82.5t-77.5 -201.5t75 -201.5t189 -82.5q105 0 176.5 63t88.5 165h-284v81z" />
    <glyph glyph-name="gdotaccent" unicode="&#x121;" horiz-adv-x="602" 
d="M299 638q-20 0 -34.5 14.5t-14.5 34.5q0 21 14.5 35t34.5 14q21 0 35 -14t14 -35q0 -20 -14 -34.5t-35 -14.5zM292 82q112 0 176 -43.5t64 -117.5q0 -75 -63.5 -118t-157.5 -43t-157.5 43t-63.5 118q0 73 69 116q-46 26 -46 65q0 44 58 72q-81 55 -81 152q0 82 60 136
t149 54q53 0 100 -22l132 12v-77l-59 5q36 -47 36 -108q0 -81 -60 -135.5t-149 -54.5q-41 0 -76 12q-29 -13 -29 -32q0 -34 98 -34zM299 444q-53 0 -90.5 -34t-37.5 -84t37.5 -83.5t90.5 -33.5q54 0 90.5 33.5t36.5 83.5q0 51 -36.5 84.5t-90.5 33.5zM311 -168
q63 0 101.5 23t38.5 65q0 89 -182 89q-9 0 -29 2q-26 -12 -47.5 -36.5t-21.5 -51.5q0 -43 38 -67t102 -24z" />
    <glyph glyph-name="Gcommaaccent" unicode="&#x122;" horiz-adv-x="865" 
d="M421 380h374q0 -175 -98 -282.5t-257 -107.5q-150 0 -250 107t-100 258q0 152 101.5 258.5t257.5 106.5q173 0 281 -148l-66 -50q-82 117 -215 117q-118 0 -195.5 -82.5t-77.5 -201.5t75 -201.5t189 -82.5q105 0 176.5 63t88.5 165h-284v81zM356 -251l45 191h92l-68 -191
h-69z" />
    <glyph glyph-name="gcommaaccent" unicode="&#x123;" horiz-adv-x="602" 
d="M390 806l-45 -191h-92l68 191h69zM292 82q112 0 176 -43.5t64 -117.5q0 -75 -63.5 -118t-157.5 -43t-157.5 43t-63.5 118q0 73 69 116q-46 26 -46 65q0 44 58 72q-81 55 -81 152q0 82 60 136t149 54q53 0 100 -22l132 12v-77l-59 5q36 -47 36 -108q0 -81 -60 -135.5
t-149 -54.5q-41 0 -76 12q-29 -13 -29 -32q0 -34 98 -34zM299 444q-53 0 -90.5 -34t-37.5 -84t37.5 -83.5t90.5 -33.5q54 0 90.5 33.5t36.5 83.5q0 51 -36.5 84.5t-90.5 33.5zM311 -168q63 0 101.5 23t38.5 65q0 89 -182 89q-9 0 -29 2q-26 -12 -47.5 -36.5t-21.5 -51.5
q0 -43 38 -67t102 -24z" />
    <glyph glyph-name="Hbar" unicode="&#x126;" horiz-adv-x="678" 
d="M734 605v-81h-111v-524h-86v318h-376v-318h-85v524h-93v81h93v105h85v-105h376v105h86v-105h111zM537 399v125h-376v-125h376z" />
    <glyph glyph-name="hbar" unicode="&#x127;" horiz-adv-x="626" 
d="M374 516q89 0 138.5 -57t49.5 -163v-296h-86v260q0 175 -132 175q-56 0 -96 -30t-56 -68.5t-16 -78.5v-258h-86v555h-68v81h68v114h86v-114h211v-81h-211v-137q82 98 198 98z" />
    <glyph glyph-name="Imacron" unicode="&#x12a;" horiz-adv-x="226" 
d="M4 932h236v-81h-236v81zM80 0v710h86v-710h-86z" />
    <glyph glyph-name="imacron" unicode="&#x12b;" horiz-adv-x="206" 
d="M-16 728h236v-81h-236v81zM146 506v-506h-86v506h86z" />
    <glyph glyph-name="Iogonek" unicode="&#x12e;" horiz-adv-x="226" 
d="M157 -93q33 0 78 27v-69q-39 -39 -93 -39q-38 0 -63 25.5t-23.5 67t34.5 81.5h-10v710h86v-710h-8q-22 -22 -29.5 -44t0.5 -35.5t28 -13.5z" />
    <glyph glyph-name="iogonek" unicode="&#x12f;" horiz-adv-x="219" 
d="M102 591q-20 0 -34.5 14.5t-14.5 34.5q0 21 14.5 35t34.5 14q21 0 35 -14t14 -35q0 -20 -14 -34.5t-35 -14.5zM136 -93q33 0 78 27v-69q-39 -39 -93 -39q-38 0 -63 25.5t-23.5 67t34.5 81.5h-9v506h86v-506h-9q-22 -22 -29.5 -44t0.5 -35.5t28 -13.5z" />
    <glyph glyph-name="Idotaccent" unicode="&#x130;" horiz-adv-x="226" 
d="M124 843q-20 0 -34.5 14.5t-14.5 34.5q0 21 14.5 35t34.5 14q21 0 35 -14t14 -35q0 -20 -14 -34.5t-35 -14.5zM80 0v710h86v-710h-86z" />
    <glyph glyph-name="dotlessi" unicode="&#x131;" horiz-adv-x="206" 
d="M146 506v-506h-86v506h86z" />
    <glyph glyph-name="Kcommaaccent" unicode="&#x136;" horiz-adv-x="655" 
d="M595 710l-289 -331l289 -379h-102l-242 315l-85 -97v-218h-86v710h86v-365l318 365h111zM230 -251l45 191h92l-68 -191h-69z" />
    <glyph glyph-name="kcommaaccent" unicode="&#x137;" horiz-adv-x="613" 
d="M553 506l-232 -220l232 -286h-107l-186 228l-84 -79v-149h-86v750h86v-487l257 243h120zM213 -251l45 191h92l-68 -191h-69z" />
    <glyph glyph-name="Lacute" unicode="&#x139;" horiz-adv-x="536" 
d="M274 963l-106 -147h-68l82 147h92zM176 81h290v-81h-376v710h86v-629z" />
    <glyph glyph-name="lacute" unicode="&#x13a;" horiz-adv-x="236" 
d="M183 1003h92l-106 -147h-68zM176 750v-750h-86v750h86z" />
    <glyph glyph-name="Lcommaaccent" unicode="&#x13b;" horiz-adv-x="536" 
d="M176 81h290v-81h-376v710h86v-629zM162 -251l45 191h92l-68 -191h-69z" />
    <glyph glyph-name="lcommaaccent" unicode="&#x13c;" horiz-adv-x="236" 
d="M176 750v-750h-86v750h86zM89 -60h92l-68 -191h-69z" />
    <glyph glyph-name="Lcaron" unicode="&#x13d;" horiz-adv-x="536" 
d="M98 816l-112 147h79l68 -100l67 100h79l-112 -147h-69zM176 81h290v-81h-376v710h86v-629z" />
    <glyph glyph-name="lcaron" unicode="&#x13e;" horiz-adv-x="444" 
d="M176 750v-750h-86v750h86zM270 727h92l-68 -191h-69z" />
    <glyph glyph-name="Lslash" unicode="&#x141;" horiz-adv-x="536" 
d="M176 81h290v-81h-376v329l-89 -67v36l89 67v345h86v-280l92 70v-36l-92 -70v-313z" />
    <glyph glyph-name="lslash" unicode="&#x142;" horiz-adv-x="236" 
d="M266 447v-36l-90 -68v-343h-86v278l-91 -69v36l91 69v436h86v-371z" />
    <glyph glyph-name="Nacute" unicode="&#x143;" horiz-adv-x="714" 
d="M512 963l-106 -147h-68l82 147h92zM568 710h86v-710h-86l-402 565v-565h-86v710h86l402 -565v565z" />
    <glyph glyph-name="nacute" unicode="&#x144;" horiz-adv-x="626" 
d="M464 759l-106 -147h-68l82 147h92zM374 516q89 0 138.5 -57t49.5 -163v-296h-86v260q0 175 -132 175q-56 0 -96 -30t-56 -68.5t-16 -78.5v-258h-86v506h81l4 -88q83 98 199 98z" />
    <glyph glyph-name="Ncommaaccent" unicode="&#x145;" horiz-adv-x="714" 
d="M568 710h86v-710h-86l-402 565v-565h-86v710h86l402 -565v565zM284 -251l45 191h92l-68 -191h-69z" />
    <glyph glyph-name="ncommaaccent" unicode="&#x146;" horiz-adv-x="626" 
d="M374 516q89 0 138.5 -57t49.5 -163v-296h-86v260q0 175 -132 175q-56 0 -96 -30t-56 -68.5t-16 -78.5v-258h-86v506h81l4 -88q83 98 199 98zM236 -251l45 191h92l-68 -191h-69z" />
    <glyph glyph-name="Ncaron" unicode="&#x147;" horiz-adv-x="714" 
d="M336 816l-112 147h79l68 -100l67 100h79l-112 -147h-69zM568 710h86v-710h-86l-402 565v-565h-86v710h86l402 -565v565z" />
    <glyph glyph-name="ncaron" unicode="&#x148;" horiz-adv-x="626" 
d="M288 612l-112 147h79l68 -100l67 100h79l-112 -147h-69zM374 516q89 0 138.5 -57t49.5 -163v-296h-86v260q0 175 -132 175q-56 0 -96 -30t-56 -68.5t-16 -78.5v-258h-86v506h81l4 -88q83 98 199 98z" />
    <glyph glyph-name="Eng" unicode="&#x14a;" horiz-adv-x="754" 
d="M568 710h86v-761q0 -80 -36 -117.5t-91 -37.5q-60 0 -96 28v71q36 -18 60 -18q43 0 60 22t17 64v39l-402 565v-565h-86v710h86l402 -565v565z" />
    <glyph glyph-name="eng" unicode="&#x14b;" horiz-adv-x="621" 
d="M562 296v-324q0 -80 -36.5 -118t-91.5 -38q-58 0 -96 28v72q35 -19 61 -19q43 0 60 22t17 65v276q0 175 -132 175q-56 0 -96 -30t-56 -68.5t-16 -78.5v-258h-86v506h81l4 -88q83 98 199 98q89 0 138.5 -57t49.5 -163z" />
    <glyph glyph-name="Omacron" unicode="&#x14c;" horiz-adv-x="877" 
d="M329 932h236v-81h-236v81zM448 -10q-151 0 -254.5 106.5t-103.5 258.5t103.5 258.5t254.5 106.5t255 -106.5t104 -258.5t-104 -258.5t-255 -106.5zM448 71q115 0 194 83.5t79 200.5t-79 200.5t-194 83.5t-193.5 -83.5t-78.5 -200.5t78.5 -200.5t193.5 -83.5z" />
    <glyph glyph-name="omacron" unicode="&#x14d;" horiz-adv-x="697" 
d="M241 728h236v-81h-236v81zM359 -10q-114 0 -191.5 77t-77.5 187q0 109 77.5 185.5t191.5 76.5t191 -76.5t77 -185.5q0 -110 -76.5 -187t-191.5 -77zM359 71q77 0 129.5 53.5t52.5 129.5q0 74 -52.5 127.5t-129.5 53.5t-130 -53.5t-53 -127.5q0 -76 53 -129.5t130 -53.5z
" />
    <glyph glyph-name="Ohungarumlaut" unicode="&#x150;" horiz-adv-x="877" 
d="M434 963h92l-106 -147h-68zM578 963h92l-106 -147h-68zM448 -10q-151 0 -254.5 106.5t-103.5 258.5t103.5 258.5t254.5 106.5t255 -106.5t104 -258.5t-104 -258.5t-255 -106.5zM448 71q115 0 194 83.5t79 200.5t-79 200.5t-194 83.5t-193.5 -83.5t-78.5 -200.5
t78.5 -200.5t193.5 -83.5z" />
    <glyph glyph-name="ohungarumlaut" unicode="&#x151;" horiz-adv-x="697" 
d="M346 759h92l-106 -147h-68zM490 759h92l-106 -147h-68zM359 -10q-114 0 -191.5 77t-77.5 187q0 109 77.5 185.5t191.5 76.5t191 -76.5t77 -185.5q0 -110 -76.5 -187t-191.5 -77zM359 71q77 0 129.5 53.5t52.5 129.5q0 74 -52.5 127.5t-129.5 53.5t-130 -53.5t-53 -127.5
q0 -76 53 -129.5t130 -53.5z" />
    <glyph glyph-name="OE" unicode="&#x152;" horiz-adv-x="1180" 
d="M1136 629h-295v-221h228v-81h-228v-246h295v-81h-381v165q-48 -80 -128.5 -127.5t-178.5 -47.5q-151 0 -254.5 106.5t-103.5 258.5t103.5 258.5t254.5 106.5q98 0 178.5 -47.5t128.5 -127.5v165h381v-81zM448 71q115 0 194 83.5t79 200.5t-79 200.5t-194 83.5
t-193.5 -83.5t-78.5 -200.5t78.5 -200.5t193.5 -83.5z" />
    <glyph glyph-name="oe" unicode="&#x153;" horiz-adv-x="1095" 
d="M1025 248v-28h-387q8 -78 56 -117.5t131 -39.5q75 0 172 54v-66q-78 -61 -187 -61q-76 0 -134 32t-90 89q-36 -56 -95.5 -88.5t-131.5 -32.5q-114 0 -191.5 77t-77.5 187q0 109 77.5 185.5t191.5 76.5q72 0 131.5 -32.5t94.5 -87.5q32 56 86.5 88t122.5 32
q107 0 169 -75.5t62 -192.5zM796 439q-65 0 -107.5 -41t-50.5 -114h303q-8 73 -44.5 114t-100.5 41zM359 71q77 0 129.5 53.5t52.5 129.5q0 74 -52.5 127.5t-129.5 53.5t-130 -53.5t-53 -127.5q0 -76 53 -129.5t130 -53.5z" />
    <glyph glyph-name="Racute" unicode="&#x154;" horiz-adv-x="621" 
d="M434 963l-106 -147h-68l82 147h92zM468 0l-151 238h-156v-238h-85v710h253q95 0 163.5 -65t68.5 -171q0 -83 -43 -141.5t-112 -82.5l160 -250h-98zM161 629v-310h168q61 0 104 42.5t43 112.5t-43 112.5t-104 42.5h-168z" />
    <glyph glyph-name="racute" unicode="&#x155;" horiz-adv-x="386" 
d="M371 759l-106 -147h-68l82 147h92zM175 442q53 74 117 74q40 0 64 -22l-15 -75q-23 16 -54 16q-55 0 -83 -52.5t-28 -130.5v-252h-86v506h81z" />
    <glyph glyph-name="Rcommaaccent" unicode="&#x156;" horiz-adv-x="621" 
d="M406 250l160 -250h-98l-151 238h-156v-238h-85v710h253q95 0 163.5 -65t68.5 -171q0 -83 -43 -141.5t-112 -82.5zM161 629v-310h168q61 0 104 42.5t43 112.5t-43 112.5t-104 42.5h-168zM215 -251l45 191h92l-68 -191h-69z" />
    <glyph glyph-name="rcommaaccent" unicode="&#x157;" horiz-adv-x="386" 
d="M292 516q40 0 64 -22l-15 -75q-23 16 -54 16q-55 0 -83 -52.5t-28 -130.5v-252h-86v506h81l4 -64q53 74 117 74zM41 -251l45 191h92l-68 -191h-69z" />
    <glyph glyph-name="Rcaron" unicode="&#x158;" horiz-adv-x="621" 
d="M259 816l-112 147h79l68 -100l67 100h79l-112 -147h-69zM468 0l-151 238h-156v-238h-85v710h253q95 0 163.5 -65t68.5 -171q0 -83 -43 -141.5t-112 -82.5l160 -250h-98zM161 629v-310h168q61 0 104 42.5t43 112.5t-43 112.5t-104 42.5h-168z" />
    <glyph glyph-name="rcaron" unicode="&#x159;" horiz-adv-x="386" 
d="M195 612l-112 147h79l68 -100l67 100h79l-112 -147h-69zM175 442q53 74 117 74q40 0 64 -22l-15 -75q-23 16 -54 16q-55 0 -83 -52.5t-28 -130.5v-252h-86v506h81z" />
    <glyph glyph-name="Sacute" unicode="&#x15a;" horiz-adv-x="616" 
d="M373 963h92l-106 -147h-68zM101 198h86q4 -61 45 -94t97 -33q61 0 96.5 28.5t35.5 73.5q0 27 -10.5 49t-35.5 41t-46 31.5t-61 32.5q-105 56 -148.5 100.5t-43.5 118.5q0 76 58.5 125t143.5 49q86 0 142 -56t61 -138h-86q-5 50 -37 81.5t-80 31.5q-49 0 -82.5 -27
t-33.5 -70q0 -22 7.5 -40t16 -29t31 -25.5t34.5 -20.5t45 -22q107 -55 158.5 -106t51.5 -129q0 -82 -61.5 -131t-155.5 -49q-96 0 -159.5 59t-68.5 149z" />
    <glyph glyph-name="sacute" unicode="&#x15b;" horiz-adv-x="563" 
d="M333 759h92l-106 -147h-68zM90 140h86q22 -77 127 -77q46 0 75 18t29 48q0 9 -1.5 17t-6.5 15t-9 12.5t-14.5 11.5t-17 9.5t-22 10t-24.5 10t-30 11.5t-33 12q-65 22 -103.5 55t-38.5 88q0 61 51 98t120 37q79 0 129 -40t54 -103h-85q-4 33 -32 52t-64 19q-34 0 -61 -17
t-27 -46q0 -8 1.5 -14.5t6.5 -12.5t9 -10.5t13.5 -10t16 -9t21.5 -9.5t24 -9.5t28.5 -10.5t31.5 -12q75 -28 112 -64.5t37 -91.5q0 -62 -54 -99.5t-138 -37.5q-89 0 -145.5 39t-65.5 111z" />
    <glyph glyph-name="Scedilla" unicode="&#x15e;" horiz-adv-x="616" 
d="M546 170q0 -77 -54 -125t-140 -54l-21 -40q41 -1 66.5 -18t25.5 -48q0 -82 -182 -82l16 42q115 0 115 39q0 31 -60 31l-49 -2l30 79q-83 11 -135.5 68t-56.5 138h86q4 -61 45 -94t97 -33q61 0 96.5 28.5t35.5 73.5q0 27 -10.5 49t-35.5 41t-46 31.5t-61 32.5
q-105 56 -148.5 100.5t-43.5 118.5q0 76 58.5 125t143.5 49q86 0 142 -56t61 -138h-86q-5 50 -37 81.5t-80 31.5q-49 0 -82.5 -27t-33.5 -70q0 -22 7.5 -40t16 -29t31 -25.5t34.5 -20.5t45 -22q107 -55 158.5 -106t51.5 -129z" />
    <glyph glyph-name="scedilla" unicode="&#x15f;" horiz-adv-x="563" 
d="M493 127q0 -58 -46.5 -94.5t-122.5 -41.5l-21 -40q41 -1 66.5 -18t25.5 -48q0 -82 -182 -82l16 42q115 0 115 39q0 31 -60 31l-49 -2l30 79q-74 8 -120.5 46t-54.5 102h86q22 -77 127 -77q46 0 75 18t29 48q0 9 -1.5 17t-6.5 15t-9 12.5t-14.5 11.5t-17 9.5t-22 10
t-24.5 10t-30 11.5t-33 12q-65 22 -103.5 55t-38.5 88q0 61 51 98t120 37q79 0 129 -40t54 -103h-85q-4 33 -32 52t-64 19q-34 0 -61 -17t-27 -46q0 -8 1.5 -14.5t6.5 -12.5t9 -10.5t13.5 -10t16 -9t21.5 -9.5t24 -9.5t28.5 -10.5t31.5 -12q75 -28 112 -64.5t37 -91.5z" />
    <glyph glyph-name="Scaron" unicode="&#x160;" horiz-adv-x="616" 
d="M289 816l-112 147h79l68 -100l67 100h79l-112 -147h-69zM336 405q107 -55 158.5 -106t51.5 -129q0 -82 -61.5 -131t-155.5 -49q-96 0 -159.5 59t-68.5 149h86q4 -61 45 -94t97 -33q61 0 96.5 28.5t35.5 73.5q0 27 -10.5 49t-35.5 41t-46 31.5t-61 32.5
q-105 56 -148.5 100.5t-43.5 118.5q0 76 58.5 125t143.5 49q86 0 142 -56t61 -138h-86q-5 50 -37 81.5t-80 31.5q-49 0 -82.5 -27t-33.5 -70q0 -22 7.5 -40t16 -29t31 -25.5t34.5 -20.5t45 -22z" />
    <glyph glyph-name="scaron" unicode="&#x161;" horiz-adv-x="563" 
d="M249 612l-112 147h79l68 -100l67 100h79l-112 -147h-69zM344 283q75 -28 112 -64.5t37 -91.5q0 -62 -54 -99.5t-138 -37.5q-89 0 -145.5 39t-65.5 111h86q22 -77 127 -77q46 0 75 18t29 48q0 9 -1.5 17t-6.5 15t-9 12.5t-14.5 11.5t-17 9.5t-22 10t-24.5 10t-30 11.5
t-33 12q-65 22 -103.5 55t-38.5 88q0 61 51 98t120 37q79 0 129 -40t54 -103h-85q-4 33 -32 52t-64 19q-34 0 -61 -17t-27 -46q0 -8 1.5 -14.5t6.5 -12.5t9 -10.5t13.5 -10t16 -9t21.5 -9.5t24 -9.5t28.5 -10.5t31.5 -12z" />
    <glyph glyph-name="uni0162" unicode="&#x162;" horiz-adv-x="554" 
d="M330 0h-11l-26 -49q41 -1 66.5 -18t25.5 -48q0 -82 -182 -82l16 42q115 0 115 39q0 31 -60 31l-49 -2l33 87h-14v629h-174v81h434v-81h-174v-629z" />
    <glyph glyph-name="uni0163" unicode="&#x163;" horiz-adv-x="372" 
d="M217 0h-11l-26 -49q41 -1 66.5 -18t25.5 -48q0 -82 -182 -82l16 42q115 0 115 39q0 31 -60 31l-49 -2l33 87h-13v425h-72v81h72v150h85v-150h105v-81h-105v-425z" />
    <glyph glyph-name="Tcaron" unicode="&#x164;" horiz-adv-x="554" 
d="M251 816l-112 147h79l68 -100l67 100h79l-112 -147h-69zM504 710v-81h-174v-629h-86v629h-174v81h434z" />
    <glyph glyph-name="tcaron" unicode="&#x165;" horiz-adv-x="372" 
d="M327 745h92l-68 -191h-69zM217 656v-150h105v-81h-105v-425h-85v425h-72v81h72v150h85z" />
    <glyph glyph-name="Tbar" unicode="&#x166;" horiz-adv-x="554" 
d="M504 629h-174v-234h140v-81h-140v-314h-86v314h-139v81h139v234h-174v81h434v-81z" />
    <glyph glyph-name="tbar" unicode="&#x167;" horiz-adv-x="372" 
d="M322 425h-105v-114h86v-81h-86v-230h-85v230h-60v81h60v114h-72v81h72v150h85v-150h105v-81z" />
    <glyph glyph-name="Utilde" unicode="&#x168;" horiz-adv-x="682" 
d="M144 848q3 47 31.5 79t81.5 32q40 0 90 -36t80 -36q28 0 43 14.5t15 39.5l73 -13q-4 -48 -32 -79.5t-82 -31.5q-40 0 -90 36t-79 36q-27 0 -42.5 -15.5t-15.5 -38.5zM627 292q0 -152 -73 -227t-203 -75t-202.5 75t-72.5 227v418h85v-418q0 -221 190 -221t190 221v418h86
v-418z" />
    <glyph glyph-name="utilde" unicode="&#x169;" horiz-adv-x="626" 
d="M252 685q-27 0 -42.5 -15.5t-15.5 -38.5l-73 13q3 47 31.5 79t81.5 32q40 0 90 -36t80 -36q28 0 43 14.5t15 39.5l73 -13q-4 -48 -32 -79.5t-82 -31.5q-40 0 -90 36t-79 36zM471 506h85v-506h-81l-3 89q-85 -99 -200 -99q-89 0 -138.5 57t-49.5 163v296h86v-260
q0 -175 132 -175q56 0 96 30t56 68.5t16 78.5h1v258z" />
    <glyph glyph-name="Umacron" unicode="&#x16a;" horiz-adv-x="682" 
d="M232 932h236v-81h-236v81zM627 292q0 -152 -73 -227t-203 -75t-202.5 75t-72.5 227v418h85v-418q0 -221 190 -221t190 221v418h86v-418z" />
    <glyph glyph-name="umacron" unicode="&#x16b;" horiz-adv-x="626" 
d="M445 728v-81h-236v81h236zM471 506h85v-506h-81l-3 89q-85 -99 -200 -99q-89 0 -138.5 57t-49.5 163v296h86v-260q0 -175 132 -175q56 0 96 30t56 68.5t16 78.5h1v258z" />
    <glyph glyph-name="Uring" unicode="&#x16e;" horiz-adv-x="682" 
d="M351 821q-31 0 -53.5 22.5t-22.5 53.5t22.5 53.5t53.5 22.5t53.5 -22.5t22.5 -53.5t-22.5 -53.5t-53.5 -22.5zM351 863q14 0 24 10t10 24t-10 24t-24 10t-24 -10t-10 -24t10 -24t24 -10zM627 292q0 -152 -73 -227t-203 -75t-202.5 75t-72.5 227v418h85v-418
q0 -221 190 -221t190 221v418h86v-418z" />
    <glyph glyph-name="uring" unicode="&#x16f;" horiz-adv-x="626" 
d="M328 617q-32 0 -54 22.5t-22 53.5t22 53.5t54 22.5t54 -22.5t22 -53.5t-22 -53.5t-54 -22.5zM328 727q-14 0 -24 -10t-10 -24t10 -24t24 -10t24 10t10 24t-10 24t-24 10zM471 506h85v-506h-81l-3 89q-85 -99 -200 -99q-89 0 -138.5 57t-49.5 163v296h86v-260
q0 -175 132 -175q56 0 96 30t56 68.5t16 78.5h1v258z" />
    <glyph glyph-name="Uhungarumlaut" unicode="&#x170;" horiz-adv-x="682" 
d="M337 963h92l-106 -147h-68zM481 963h92l-106 -147h-68zM627 292q0 -152 -73 -227t-203 -75t-202.5 75t-72.5 227v418h85v-418q0 -221 190 -221t190 221v418h86v-418z" />
    <glyph glyph-name="uhungarumlaut" unicode="&#x171;" horiz-adv-x="626" 
d="M406 759l-106 -147h-68l82 147h92zM444 612h-68l82 147h92zM471 506h85v-506h-81l-3 89q-85 -99 -200 -99q-89 0 -138.5 57t-49.5 163v296h86v-260q0 -175 132 -175q56 0 96 30t56 68.5t16 78.5h1v258z" />
    <glyph glyph-name="Uogonek" unicode="&#x172;" horiz-adv-x="682" 
d="M541 710h86v-418q0 -146 -68.5 -221.5t-190.5 -80.5q-20 -28 -15 -50.5t31 -22.5q33 0 78 27v-69q-39 -39 -93 -39q-56 0 -78.5 49t13.5 108q-108 12 -168 87t-60 212v418h85v-418q0 -221 190 -221t190 221v418z" />
    <glyph glyph-name="uogonek" unicode="&#x173;" horiz-adv-x="626" 
d="M553 -93q33 0 78 27v-69q-39 -39 -93 -39q-38 0 -63 25.5t-23.5 67t34.5 81.5h-11l-3 89q-85 -99 -200 -99q-89 0 -138.5 57t-49.5 163v296h86v-260q0 -175 132 -175q56 0 96 30t56 68.5t16 78.5h1v258h85v-506h-2q-22 -22 -29.5 -44t0.5 -35.5t28 -13.5z" />
    <glyph glyph-name="Wcircumflex" unicode="&#x174;" horiz-adv-x="1144" 
d="M583 916l-68 -100h-79l112 147h69l112 -147h-79zM1006 710h88l-227 -710h-102l-183 573l-183 -573h-102l-227 710h88l190 -597l190 597h88l190 -597z" />
    <glyph glyph-name="wcircumflex" unicode="&#x175;" horiz-adv-x="960" 
d="M493 712l-68 -100h-79l112 147h69l112 -147h-79zM809 506h91l-183 -506h-90l-137 380l-138 -380h-89l-183 506h91l137 -401l136 401h91l137 -401z" />
    <glyph glyph-name="Ycircumflex" unicode="&#x176;" horiz-adv-x="716" 
d="M369 916l-68 -100h-79l112 147h69l112 -147h-79zM569 710h97l-255 -414v-296h-86v296l-255 414h97l201 -326z" />
    <glyph glyph-name="ycircumflex" unicode="&#x177;" horiz-adv-x="670" 
d="M350 712l-68 -100h-79l112 147h69l112 -147h-79zM518 506h92l-319 -736h-91l100 231l-220 505h92l174 -399z" />
    <glyph glyph-name="Ydieresis" unicode="&#x178;" horiz-adv-x="716" 
d="M286 843q-20 0 -34.5 14.5t-14.5 34.5q0 21 14.5 35t34.5 14q21 0 35 -14t14 -35q0 -20 -14 -34.5t-35 -14.5zM451 843q-20 0 -34.5 14.5t-14.5 34.5q0 21 14.5 35t34.5 14q21 0 35 -14t14 -35q0 -20 -14 -34.5t-35 -14.5zM569 710h97l-255 -414v-296h-86v296l-255 414
h97l201 -326z" />
    <glyph glyph-name="Zacute" unicode="&#x179;" horiz-adv-x="690" 
d="M505 963l-106 -147h-68l82 147h92zM630 710v-81l-429 -548h429v-81h-540v81l429 548h-429v81h540z" />
    <glyph glyph-name="zacute" unicode="&#x17a;" horiz-adv-x="559" 
d="M432 759l-106 -147h-68l82 147h92zM499 506v-81l-294 -344h294v-81h-409v81l295 344h-295v81h409z" />
    <glyph glyph-name="Zdotaccent" unicode="&#x17b;" horiz-adv-x="690" 
d="M365 843q-20 0 -34.5 14.5t-14.5 34.5q0 21 14.5 35t34.5 14q21 0 35 -14t14 -35q0 -20 -14 -34.5t-35 -14.5zM630 710v-81l-429 -548h429v-81h-540v81l429 548h-429v81h540z" />
    <glyph glyph-name="zdotaccent" unicode="&#x17c;" horiz-adv-x="559" 
d="M292 639q-20 0 -34.5 14.5t-14.5 34.5q0 21 14.5 35t34.5 14q21 0 35 -14t14 -35q0 -20 -14 -34.5t-35 -14.5zM499 506v-81l-294 -344h294v-81h-409v81l295 344h-295v81h409z" />
    <glyph glyph-name="Zcaron" unicode="&#x17d;" horiz-adv-x="690" 
d="M329 816l-112 147h79l68 -100l67 100h79l-112 -147h-69zM630 710v-81l-429 -548h429v-81h-540v81l429 548h-429v81h540z" />
    <glyph glyph-name="zcaron" unicode="&#x17e;" horiz-adv-x="559" 
d="M256 612l-112 147h79l68 -100l67 100h79l-112 -147h-69zM499 506v-81l-294 -344h294v-81h-409v81l295 344h-295v81h409z" />
    <glyph glyph-name="Scommaaccent" unicode="&#x218;" horiz-adv-x="616" 
d="M101 198h86q4 -61 45 -94t97 -33q61 0 96.5 28.5t35.5 73.5q0 27 -10.5 49t-35.5 41t-46 31.5t-61 32.5q-105 56 -148.5 100.5t-43.5 118.5q0 76 58.5 125t143.5 49q86 0 142 -56t61 -138h-86q-5 50 -37 81.5t-80 31.5q-49 0 -82.5 -27t-33.5 -70q0 -22 7.5 -40t16 -29
t31 -25.5t34.5 -20.5t45 -22q107 -55 158.5 -106t51.5 -129q0 -82 -61.5 -131t-155.5 -49q-96 0 -159.5 59t-68.5 149zM282 -60h92l-68 -191h-69z" />
    <glyph glyph-name="scommaaccent" unicode="&#x219;" horiz-adv-x="563" 
d="M90 140h86q22 -77 127 -77q46 0 75 18t29 48q0 9 -1.5 17t-6.5 15t-9 12.5t-14.5 11.5t-17 9.5t-22 10t-24.5 10t-30 11.5t-33 12q-65 22 -103.5 55t-38.5 88q0 61 51 98t120 37q79 0 129 -40t54 -103h-85q-4 33 -32 52t-64 19q-34 0 -61 -17t-27 -46q0 -8 1.5 -14.5
t6.5 -12.5t9 -10.5t13.5 -10t16 -9t21.5 -9.5t24 -9.5t28.5 -10.5t31.5 -12q75 -28 112 -64.5t37 -91.5q0 -62 -54 -99.5t-138 -37.5q-89 0 -145.5 39t-65.5 111zM254 -60h92l-68 -191h-69z" />
    <glyph glyph-name="uni021A" unicode="&#x21a;" horiz-adv-x="554" 
d="M504 710v-81h-174v-629h-86v629h-174v81h434zM199 -251l45 191h92l-68 -191h-69z" />
    <glyph glyph-name="uni021B" unicode="&#x21b;" horiz-adv-x="372" 
d="M217 506h105v-81h-105v-425h-85v425h-72v81h72v150h85v-150zM86 -251l45 191h92l-68 -191h-69z" />
    <glyph glyph-name="circumflex" unicode="&#x2c6;" horiz-adv-x="493" 
d="M393 576h-79l-67 100l-68 -100h-79l112 147h69z" />
    <glyph glyph-name="caron" unicode="&#x2c7;" horiz-adv-x="493" 
d="M314 723h79l-113 -147h-68l-112 147h79l68 -100z" />
    <glyph glyph-name="breve" unicode="&#x2d8;" horiz-adv-x="538" 
d="M438 723q0 -65 -49 -106t-120 -41t-120 41t-49 106h68q0 -33 25 -60.5t76 -27.5t76 27.5t25 60.5h68z" />
    <glyph glyph-name="dotaccent" unicode="&#x2d9;" horiz-adv-x="298" 
d="M149 603q-20 0 -34.5 14.5t-14.5 34.5q0 21 14.5 35t34.5 14q21 0 35 -14t14 -35q0 -20 -14 -34.5t-35 -14.5z" />
    <glyph glyph-name="ring" unicode="&#x2da;" horiz-adv-x="352" 
d="M176 581q-32 0 -54 22.5t-22 53.5t22 53.5t54 22.5t54 -22.5t22 -53.5t-22 -53.5t-54 -22.5zM176 623q14 0 24 10t10 24t-10 24t-24 10t-24 -10t-10 -24t10 -24t24 -10z" />
    <glyph glyph-name="ogonek" unicode="&#x2db;" horiz-adv-x="382" 
d="M282 -66v-69q-39 -39 -94 -39q-38 0 -63 25.5t-23 67t35 81.5h68q-22 -22 -29.5 -44t0.5 -35.5t28 -13.5q33 0 78 27z" />
    <glyph glyph-name="tilde" unicode="&#x2dc;" horiz-adv-x="614" 
d="M100 608q3 47 31.5 79t81.5 32q40 0 90 -36t80 -36q28 0 43 14.5t15 39.5l73 -13q-4 -48 -32 -79.5t-82 -31.5q-40 0 -90 36t-79 36q-27 0 -42.5 -15.5t-15.5 -38.5z" />
    <glyph glyph-name="hungarumlaut" unicode="&#x2dd;" horiz-adv-x="518" 
d="M182 723h92l-106 -147h-68zM327 723h91l-106 -147h-68z" />
    <glyph glyph-name="gravecomb" unicode="&#x300;" 
d="M-182 723l82 -147h-68l-105 147h91z" />
    <glyph glyph-name="acutecomb" unicode="&#x301;" 
d="M-192 723h92l-106 -147h-68z" />
    <glyph glyph-name="uni0302" unicode="&#x302;" 
d="M-101 576h-79l-67 100l-68 -100h-79l112 147h69z" />
    <glyph glyph-name="tildecomb" unicode="&#x303;" 
d="M-514 608q3 47 31.5 79t81.5 32q40 0 90 -36t80 -36q28 0 43 14.5t15 39.5l73 -13q-4 -48 -32 -79.5t-82 -31.5q-40 0 -90 36t-79 36q-27 0 -42.5 -15.5t-15.5 -38.5z" />
    <glyph glyph-name="uni0304" unicode="&#x304;" 
d="M-339 692h235v-81h-235v81z" />
    <glyph glyph-name="uni0306" unicode="&#x306;" 
d="M-100 723q0 -65 -49 -106t-120 -41t-120 41t-49 106h68q0 -33 25 -60.5t76 -27.5t76 27.5t25 60.5h68z" />
    <glyph glyph-name="uni0307" unicode="&#x307;" 
d="M-149 603q-20 0 -34.5 14.5t-14.5 34.5q0 21 14.5 35t34.5 14q21 0 35 -14t14 -35q0 -20 -14 -34.5t-35 -14.5z" />
    <glyph glyph-name="uni0308" unicode="&#x308;" 
d="M-309 603q-20 0 -34.5 14.5t-14.5 34.5q0 21 14.5 35t34.5 14q21 0 35 -14t14 -35q0 -20 -14 -34.5t-35 -14.5zM-144 603q-20 0 -34.5 14.5t-14.5 34.5q0 21 14.5 35t34.5 14q21 0 35 -14t14 -35q0 -20 -14 -34.5t-35 -14.5z" />
    <glyph glyph-name="uni030A" unicode="&#x30a;" 
d="M-176 581q-32 0 -54 22.5t-22 53.5t22 53.5t54 22.5t54 -22.5t22 -53.5t-22 -53.5t-54 -22.5zM-176 623q14 0 24 10t10 24t-10 24t-24 10t-24 -10t-10 -24t10 -24t24 -10z" />
    <glyph glyph-name="uni030B" unicode="&#x30b;" 
d="M-316 723h92l-106 -147h-68zM-171 723h91l-106 -147h-68z" />
    <glyph glyph-name="uni030C" unicode="&#x30c;" 
d="M-180 723h79l-112 -147h-69l-112 147h79l68 -100z" />
    <glyph glyph-name="uni0312" unicode="&#x312;" 
d="M-145 580h-92l68 191h69z" />
    <glyph glyph-name="uni0326" unicode="&#x326;" 
d="M-192 -60h92l-68 -191h-69z" />
    <glyph glyph-name="uni0327" unicode="&#x327;" 
d="M-156 -49q41 -1 66.5 -18t25.5 -48q0 -82 -182 -82l16 42q115 0 115 39q0 29 -60 31l-49 -2l33 87h61z" />
    <glyph glyph-name="uni0328" unicode="&#x328;" 
d="M-88 -66v-69q-39 -39 -93 -39q-38 0 -63 25.5t-23.5 67t34.5 81.5h68q-22 -22 -29.5 -44t0.5 -35.5t28 -13.5q33 0 78 27z" />
    <glyph glyph-name="uni0335" unicode="&#x335;" 
d="M-466 276h366v-82h-366v82z" />
    <glyph glyph-name="uni0336" unicode="&#x336;" 
d="M-775 271h751v-81h-751v81z" />
    <glyph glyph-name="uni0337" unicode="&#x337;" 
d="M-367 116v36l267 202v-36z" />
    <glyph glyph-name="uni0338" unicode="&#x338;" 
d="M-84 750l-597 -790h-36l597 790h36z" />
    <glyph glyph-name="Wgrave" unicode="&#x1e80;" horiz-adv-x="1144" 
d="M616 816h-68l-106 147h92zM1006 710h88l-227 -710h-102l-183 573l-183 -573h-102l-227 710h88l190 -597l190 597h88l190 -597z" />
    <glyph glyph-name="wgrave" unicode="&#x1e81;" horiz-adv-x="960" 
d="M526 612h-68l-106 147h92zM809 506h91l-183 -506h-90l-137 380l-138 -380h-89l-183 506h91l137 -401l136 401h91l137 -401z" />
    <glyph glyph-name="Wacute" unicode="&#x1e82;" horiz-adv-x="1144" 
d="M722 963l-106 -147h-68l82 147h92zM1006 710h88l-227 -710h-102l-183 573l-183 -573h-102l-227 710h88l190 -597l190 597h88l190 -597z" />
    <glyph glyph-name="wacute" unicode="&#x1e83;" horiz-adv-x="960" 
d="M632 759l-106 -147h-68l82 147h92zM809 506h91l-183 -506h-90l-137 380l-138 -380h-89l-183 506h91l137 -401l136 401h91l137 -401z" />
    <glyph glyph-name="Wdieresis" unicode="&#x1e84;" horiz-adv-x="1144" 
d="M500 843q-20 0 -34.5 14.5t-14.5 34.5q0 21 14.5 35t34.5 14q21 0 35 -14t14 -35q0 -20 -14 -34.5t-35 -14.5zM665 843q-20 0 -34.5 14.5t-14.5 34.5q0 21 14.5 35t34.5 14q21 0 35 -14t14 -35q0 -20 -14 -34.5t-35 -14.5zM1006 710h88l-227 -710h-102l-183 573
l-183 -573h-102l-227 710h88l190 -597l190 597h88l190 -597z" />
    <glyph glyph-name="wdieresis" unicode="&#x1e85;" horiz-adv-x="960" 
d="M409 639q-20 0 -34.5 14.5t-14.5 34.5q0 21 14.5 35t34.5 14q21 0 35 -14t14 -35q0 -20 -14 -34.5t-35 -14.5zM574 639q-20 0 -34.5 14.5t-14.5 34.5q0 21 14.5 35t34.5 14q21 0 35 -14t14 -35q0 -20 -14 -34.5t-35 -14.5zM809 506h91l-183 -506h-90l-137 380l-138 -380
h-89l-183 506h91l137 -401l136 401h91l137 -401z" />
    <glyph glyph-name="uni1EBC" unicode="&#x1ebc;" horiz-adv-x="512" 
d="M190 889q-27 0 -42.5 -15.5t-15.5 -38.5l-73 13q3 47 31.5 79t81.5 32q40 0 90 -36t80 -36q28 0 43 14.5t15 39.5l73 -13q-4 -48 -32 -79.5t-82 -31.5q-40 0 -90 36t-79 36zM76 710h380v-81h-295v-221h228v-81h-228v-246h295v-81h-380v710z" />
    <glyph glyph-name="uni1EBD" unicode="&#x1ebd;" horiz-adv-x="666" 
d="M267 685q-27 0 -42.5 -15.5t-15.5 -38.5l-73 13q3 47 31.5 79t81.5 32q40 0 90 -36t80 -36q28 0 43 14.5t15 39.5l73 -13q-4 -48 -32 -79.5t-82 -31.5q-40 0 -90 36t-79 36zM596 248v-22h-420q2 -70 50 -114.5t125 -44.5q58 0 97 26t58 64l76 -10q-17 -60 -78 -108.5
t-153 -48.5q-114 0 -187.5 75.5t-73.5 190.5q0 109 71.5 184.5t181.5 75.5q113 0 183 -78.5t70 -189.5zM343 439q-70 0 -117.5 -44t-49.5 -107h334q-4 62 -50 106.5t-117 44.5z" />
    <glyph glyph-name="Ygrave" unicode="&#x1ef2;" horiz-adv-x="716" 
d="M402 816h-68l-106 147h92zM569 710h97l-255 -414v-296h-86v296l-255 414h97l201 -326z" />
    <glyph glyph-name="ygrave" unicode="&#x1ef3;" horiz-adv-x="670" 
d="M302 759l82 -147h-68l-106 147h92zM80 506h92l174 -399l172 399h92l-319 -736h-91l100 231z" />
    <glyph glyph-name="uni1EF8" unicode="&#x1ef8;" horiz-adv-x="716" 
d="M292 889q-27 0 -42.5 -15.5t-15.5 -38.5l-73 13q3 47 31.5 79t81.5 32q40 0 90 -36t80 -36q28 0 43 14.5t15 39.5l73 -13q-4 -48 -32 -79.5t-82 -31.5q-40 0 -90 36t-79 36zM569 710h97l-255 -414v-296h-86v296l-255 414h97l201 -326z" />
    <glyph glyph-name="uni1EF9" unicode="&#x1ef9;" horiz-adv-x="670" 
d="M143 644q3 47 31.5 79t81.5 32q40 0 90 -36t80 -36q28 0 43 14.5t15 39.5l73 -13q-4 -48 -32 -79.5t-82 -31.5q-40 0 -90 36t-79 36q-27 0 -42.5 -15.5t-15.5 -38.5zM80 506h92l174 -399l172 399h92l-319 -736h-91l100 231z" />
    <glyph glyph-name="endash" unicode="&#x2013;" horiz-adv-x="873" 
d="M30 311h823v-81h-823v81z" />
    <glyph glyph-name="emdash" unicode="&#x2014;" horiz-adv-x="1147" 
d="M30 311h1097v-81h-1097v81z" />
    <glyph glyph-name="quoteleft" unicode="&#x2018;" horiz-adv-x="236" 
d="M141 536h-92l68 192h69z" />
    <glyph glyph-name="quoteright" unicode="&#x2019;" horiz-adv-x="236" 
d="M93 728h92l-68 -192h-69z" />
    <glyph glyph-name="quotesinglbase" unicode="&#x201a;" horiz-adv-x="341" 
d="M75 57h92l-68 -191h-69z" />
    <glyph glyph-name="quotedblleft" unicode="&#x201c;" horiz-adv-x="379" 
d="M146 537h-92l68 191h69zM290 537h-92l68 191h69z" />
    <glyph glyph-name="quotedblright" unicode="&#x201d;" horiz-adv-x="379" 
d="M92 727h92l-68 -191h-69zM235 727h92l-68 -191h-69z" />
    <glyph glyph-name="quotedblbase" unicode="&#x201e;" horiz-adv-x="341" 
d="M75 57h92l-68 -191h-69z" />
    <glyph glyph-name="dagger" unicode="&#x2020;" horiz-adv-x="566" 
d="M466 536v-81h-149v-535h-68v535h-149v81h149v254h68v-254h149z" />
    <glyph glyph-name="daggerdbl" unicode="&#x2021;" horiz-adv-x="566" 
d="M466 455h-149v-199h149v-81h-149v-255h-68v255h-149v81h149v199h-149v81h149v254h68v-254h149v-81z" />
    <glyph glyph-name="bullet" unicode="&#x2022;" horiz-adv-x="227" 
d="M104 221q-31 0 -52.5 21.5t-21.5 51.5q0 31 21.5 52.5t52.5 21.5t52 -21t21 -53q0 -30 -21 -51.5t-52 -21.5z" />
    <glyph glyph-name="ellipsis" unicode="&#x2026;" horiz-adv-x="474" 
d="M79 -10q-20 0 -34.5 14.5t-14.5 34.5q0 21 14.5 35t34.5 14q21 0 35 -14t14 -35q0 -20 -14 -34.5t-35 -14.5zM227 -10q-20 0 -34.5 14.5t-14.5 34.5q0 21 14.5 35t34.5 14q21 0 35 -14t14 -35q0 -20 -14 -34.5t-35 -14.5zM375 -10q-20 0 -34.5 14.5t-14.5 34.5
q0 21 14.5 35t34.5 14q21 0 35 -14t14 -35q0 -20 -14 -34.5t-35 -14.5z" />
    <glyph glyph-name="perthousand" unicode="&#x2030;" horiz-adv-x="1370" 
d="M265 390q-69 0 -117 48t-48 117t48 117t117 48t117 -48t48 -117t-48 -117t-117 -48zM816 710l-536 -710h-81l536 710h81zM265 454q43 0 72 29t29 72t-29 72t-72 29t-72 -29t-29 -72t29 -72t72 -29zM744 -10q-69 0 -117 48t-48 117t48 117t117 48t117 -48t48 -117
t-48 -117t-117 -48zM1125 -10q-69 0 -117 48t-48 117t48 117t117 48t117 -48t48 -117t-48 -117t-117 -48zM744 54q43 0 72.5 29t29.5 72t-29.5 72t-72.5 29t-72 -29t-29 -72t29 -72t72 -29zM1125 54q43 0 72 29t29 72t-29 72t-72 29t-72 -29t-29 -72t29 -72t72 -29z" />
    <glyph glyph-name="guilsinglleft" unicode="&#x2039;" horiz-adv-x="398" 
d="M318 410l-123 -171l123 -170h-95l-123 170l123 171h95z" />
    <glyph glyph-name="guilsinglright" unicode="&#x203a;" horiz-adv-x="376" 
d="M173 410l123 -171l-123 -170h-95l123 170l-123 171h95z" />
    <glyph glyph-name="fraction" unicode="&#x2044;" horiz-adv-x="698" 
d="M668 710l-536 -710h-82l536 710h82z" />
    <glyph glyph-name="Euro" unicode="&#x20ac;" horiz-adv-x="893" 
d="M590 639q-116 0 -197 -82t-81 -202v-12h278l-7 -29h-268q3 -22 9 -41h242l-7 -29h-226q33 -78 102.5 -125.5t154.5 -47.5q119 0 200 77v-87q-83 -71 -210 -71q-119 0 -211.5 70.5t-126.5 183.5h-142l7 29h128q-3 13 -7 41h-104l7 29h95v12q0 153 102.5 259t251.5 106
q127 0 210 -71v-87q-84 77 -200 77z" />
    <glyph glyph-name="trademark" unicode="&#x2122;" horiz-adv-x="854" 
d="M359 710v-64h-112v-236h-55v236h-112v64h279zM719 710h55v-300h-55v200l-116 -200h-22l-116 200v-200h-55v300h55l127 -220z" />
    <glyph glyph-name="arrowleft" unicode="&#x2190;" horiz-adv-x="921" 
d="M821 401v-69h-599l122 -68v-79l-244 146v69l244 146v-79l-120 -67z" />
    <glyph glyph-name="arrowup" unicode="&#x2191;" horiz-adv-x="561" 
d="M461 506h-79l-68 121v-627h-68v627l-67 -121h-79l146 244h69z" />
    <glyph glyph-name="arrowright" unicode="&#x2192;" horiz-adv-x="921" 
d="M577 546l244 -146v-69l-244 -146v79l122 68h-599v69l597 -1l-120 67v79z" />
    <glyph glyph-name="arrowdown" unicode="&#x2193;" horiz-adv-x="561" 
d="M382 244h79l-146 -244h-69l-146 244h79l67 -120v626h68v-628z" />
    <glyph glyph-name="arrowboth" unicode="&#x2194;" horiz-adv-x="950" 
d="M606 546l244 -146v-69l-244 -146v79l122 68h-506l122 -68v-78l-244 145v70l244 145v-79l-120 -67h501l-119 67v79z" />
    <glyph glyph-name="arrowupdn" unicode="&#x2195;" horiz-adv-x="561" 
d="M315 124l67 120h79l-146 -244h-69l-146 244h79l68 -122v506l-68 -122h-79l146 244h69l146 -244h-79l-67 120v-502z" />
    <glyph glyph-name="uni2196" unicode="&#x2196;" horiz-adv-x="779" 
d="M679 123l-48 -48l-443 443l38 -133l-56 -56l-70 276l49 49l276 -70l-56 -56l-133 38z" />
    <glyph glyph-name="uni2197" unicode="&#x2197;" horiz-adv-x="779" 
d="M630 654l49 -49l-70 -276l-56 56l38 133l-443 -443l-48 48l443 443l-133 -38l-56 56z" />
    <glyph glyph-name="uni2198" unicode="&#x2198;" horiz-adv-x="779" 
d="M609 442l70 -276l-49 -49l-276 70l56 56l133 -38l-443 443l48 48l443 -443l-38 133z" />
    <glyph glyph-name="uni2199" unicode="&#x2199;" horiz-adv-x="779" 
d="M236 205l133 38l56 -56l-276 -70l-49 49l70 276l56 -56l-38 -133l443 443l48 -48z" />
    <glyph glyph-name="minus" unicode="&#x2212;" horiz-adv-x="561" 
d="M109 326h365v-81h-365v81z" />
    <glyph glyph-name="approxequal" unicode="&#x2248;" horiz-adv-x="614" 
d="M100 349q3 47 31.5 79t81.5 32q40 0 90 -36t80 -36q28 0 43 14.5t15 39.5l73 -13q-4 -48 -32 -79.5t-82 -31.5q-40 0 -90 36t-79 36q-27 0 -42.5 -15.5t-15.5 -38.5zM100 189q3 47 31.5 79t81.5 32q40 0 90 -36t80 -36q28 0 43 14.5t15 39.5l73 -13q-4 -48 -32 -79.5
t-82 -31.5q-40 0 -90 36t-79 36q-27 0 -42.5 -15.5t-15.5 -38.5z" />
    <glyph glyph-name="notequal" unicode="&#x2260;" horiz-adv-x="561" 
d="M466 315h-138l-23 -61h161v-81h-191l-36 -98h-70l36 98h-105v81h135l23 61h-158v82h189l38 102h70l-38 -102h107v-82z" />
    <glyph glyph-name="lessequal" unicode="&#x2264;" horiz-adv-x="561" 
d="M461 536v-76l-274 -110l274 -109v-76l-366 147v77zM96 11v81h365v-81h-365z" />
    <glyph glyph-name="greaterequal" unicode="&#x2265;" horiz-adv-x="566" 
d="M100 536l366 -147v-77l-366 -147v76l274 109l-274 110v76zM100 11v81h365v-81h-365z" />
    <glyph glyph-name="lozenge" unicode="&#x25ca;" horiz-adv-x="645" 
d="M361 710l184 -400l-184 -400h-77l-184 400l184 400h77zM323 -6l145 316l-145 316l-146 -316z" />
    <glyph glyph-name="i.loclTRK" horiz-adv-x="219" 
d="M102 591q-20 0 -34.5 14.5t-14.5 34.5q0 21 14.5 35t34.5 14q21 0 35 -14t14 -35q0 -20 -14 -34.5t-35 -14.5zM146 506v-506h-86v506h86z" />
    <glyph glyph-name="a.ss01" horiz-adv-x="606" 
d="M334 516q60 0 101 -18t62.5 -51t30 -71.5t8.5 -88.5v-287h-81l-4 27v10q-21 -15 -65.5 -31t-96.5 -16q-81 0 -140 39t-59 115q0 75 59 113t140 38q53 0 98 -16.5t64 -32.5v41q0 76 -28.5 116.5t-103.5 40.5q-88 0 -195 -61v70q108 63 210 63zM451 104v77q-11 19 -52.5 37
t-88.5 18q-53 0 -93.5 -22.5t-40.5 -69.5t41 -71t93 -24q47 0 88.5 18t52.5 37z" />
    <glyph glyph-name="aacute.ss01" horiz-adv-x="606" 
d="M462 759l-106 -147h-68l82 147h92zM334 516q60 0 101 -18t62.5 -51t30 -71.5t8.5 -88.5v-287h-81l-4 27v10q-21 -15 -65.5 -31t-96.5 -16q-81 0 -140 39t-59 115q0 75 59 113t140 38q53 0 98 -16.5t64 -32.5v41q0 76 -28.5 116.5t-103.5 40.5q-88 0 -195 -61v70
q108 63 210 63zM451 104v77q-11 19 -52.5 37t-88.5 18q-53 0 -93.5 -22.5t-40.5 -69.5t41 -71t93 -24q47 0 88.5 18t52.5 37z" />
    <glyph glyph-name="abreve.ss01" horiz-adv-x="606" 
d="M323 612q-71 0 -120 41t-49 106h68q0 -33 25 -60.5t76 -27.5t76 27.5t25 60.5h68q0 -65 -49 -106t-120 -41zM334 516q60 0 101 -18t62.5 -51t30 -71.5t8.5 -88.5v-287h-81l-4 27v10q-21 -15 -65.5 -31t-96.5 -16q-81 0 -140 39t-59 115q0 75 59 113t140 38q53 0 98 -16.5
t64 -32.5v41q0 76 -28.5 116.5t-103.5 40.5q-88 0 -195 -61v70q108 63 210 63zM451 104v77q-11 19 -52.5 37t-88.5 18q-53 0 -93.5 -22.5t-40.5 -69.5t41 -71t93 -24q47 0 88.5 18t52.5 37z" />
    <glyph glyph-name="acircumflex.ss01" horiz-adv-x="606" 
d="M324 712l-68 -100h-79l112 147h69l112 -147h-79zM334 516q60 0 101 -18t62.5 -51t30 -71.5t8.5 -88.5v-287h-81l-4 27v10q-21 -15 -65.5 -31t-96.5 -16q-81 0 -140 39t-59 115q0 75 59 113t140 38q53 0 98 -16.5t64 -32.5v41q0 76 -28.5 116.5t-103.5 40.5
q-88 0 -195 -61v70q108 63 210 63zM451 104v77q-11 19 -52.5 37t-88.5 18q-53 0 -93.5 -22.5t-40.5 -69.5t41 -71t93 -24q47 0 88.5 18t52.5 37z" />
    <glyph glyph-name="adieresis.ss01" horiz-adv-x="606" 
d="M240 639q-20 0 -34.5 14.5t-14.5 34.5q0 21 14.5 35t34.5 14q21 0 35 -14t14 -35q0 -20 -14 -34.5t-35 -14.5zM405 639q-20 0 -34.5 14.5t-14.5 34.5q0 21 14.5 35t34.5 14q21 0 35 -14t14 -35q0 -20 -14 -34.5t-35 -14.5zM334 516q60 0 101 -18t62.5 -51t30 -71.5
t8.5 -88.5v-287h-81l-4 27v10q-21 -15 -65.5 -31t-96.5 -16q-81 0 -140 39t-59 115q0 75 59 113t140 38q53 0 98 -16.5t64 -32.5v41q0 76 -28.5 116.5t-103.5 40.5q-88 0 -195 -61v70q108 63 210 63zM451 104v77q-11 19 -52.5 37t-88.5 18q-53 0 -93.5 -22.5t-40.5 -69.5
t41 -71t93 -24q47 0 88.5 18t52.5 37z" />
    <glyph glyph-name="agrave.ss01" horiz-adv-x="606" 
d="M357 612h-68l-106 147h92zM334 516q60 0 101 -18t62.5 -51t30 -71.5t8.5 -88.5v-287h-81l-4 27v10q-21 -15 -65.5 -31t-96.5 -16q-81 0 -140 39t-59 115q0 75 59 113t140 38q53 0 98 -16.5t64 -32.5v41q0 76 -28.5 116.5t-103.5 40.5q-88 0 -195 -61v70q108 63 210 63z
M451 104v77q-11 19 -52.5 37t-88.5 18q-53 0 -93.5 -22.5t-40.5 -69.5t41 -71t93 -24q47 0 88.5 18t52.5 37z" />
    <glyph glyph-name="amacron.ss01" horiz-adv-x="606" 
d="M439 728v-81h-236v81h236zM334 516q60 0 101 -18t62.5 -51t30 -71.5t8.5 -88.5v-287h-81l-4 27v10q-21 -15 -65.5 -31t-96.5 -16q-81 0 -140 39t-59 115q0 75 59 113t140 38q53 0 98 -16.5t64 -32.5v41q0 76 -28.5 116.5t-103.5 40.5q-88 0 -195 -61v70q108 63 210 63z
M451 104v77q-11 19 -52.5 37t-88.5 18q-53 0 -93.5 -22.5t-40.5 -69.5t41 -71t93 -24q47 0 88.5 18t52.5 37z" />
    <glyph glyph-name="aogonek.ss01" horiz-adv-x="606" 
d="M528 -93q33 0 78 27v-69q-39 -39 -93 -39q-38 0 -63 25.5t-23.5 67t34.5 81.5h-6l-4 27v10q-21 -15 -65.5 -31t-96.5 -16q-81 0 -140 39t-59 115q0 75 59 113t140 38q53 0 98 -16.5t64 -32.5v41q0 76 -28.5 116.5t-103.5 40.5q-88 0 -195 -61v70q108 63 210 63
q60 0 101 -18t62.5 -51t30 -71.5t8.5 -88.5v-287h-7q-22 -22 -29.5 -44t0.5 -35.5t28 -13.5zM451 104v77q-11 19 -52.5 37t-88.5 18q-53 0 -93.5 -22.5t-40.5 -69.5t41 -71t93 -24q47 0 88.5 18t52.5 37z" />
    <glyph glyph-name="aring.ss01" horiz-adv-x="606" 
d="M323 617q-31 0 -53.5 22.5t-22.5 53.5t22.5 53.5t53.5 22.5t53.5 -22.5t22.5 -53.5t-22.5 -53.5t-53.5 -22.5zM323 727q-14 0 -24 -10t-10 -24t10 -24t24 -10t24 10t10 24t-10 24t-24 10zM334 516q60 0 101 -18t62.5 -51t30 -71.5t8.5 -88.5v-287h-81l-4 27v10
q-21 -15 -65.5 -31t-96.5 -16q-81 0 -140 39t-59 115q0 75 59 113t140 38q53 0 98 -16.5t64 -32.5v41q0 76 -28.5 116.5t-103.5 40.5q-88 0 -195 -61v70q108 63 210 63zM451 104v77q-11 19 -52.5 37t-88.5 18q-53 0 -93.5 -22.5t-40.5 -69.5t41 -71t93 -24q47 0 88.5 18
t52.5 37z" />
    <glyph glyph-name="atilde.ss01" horiz-adv-x="606" 
d="M247 685q-27 0 -42.5 -15.5t-15.5 -38.5l-73 13q3 47 31.5 79t81.5 32q40 0 90 -36t80 -36q28 0 43 14.5t15 39.5l73 -13q-4 -48 -32 -79.5t-82 -31.5q-40 0 -90 36t-79 36zM334 516q60 0 101 -18t62.5 -51t30 -71.5t8.5 -88.5v-287h-81l-4 27v10q-21 -15 -65.5 -31
t-96.5 -16q-81 0 -140 39t-59 115q0 75 59 113t140 38q53 0 98 -16.5t64 -32.5v41q0 76 -28.5 116.5t-103.5 40.5q-88 0 -195 -61v70q108 63 210 63zM451 104v77q-11 19 -52.5 37t-88.5 18q-53 0 -93.5 -22.5t-40.5 -69.5t41 -71t93 -24q47 0 88.5 18t52.5 37z" />
    <glyph glyph-name="ae.ss01" horiz-adv-x="1009" 
d="M939 248v-28h-387q8 -78 56 -117.5t131 -39.5q75 0 172 54v-66q-33 -26 -83 -43.5t-104 -17.5q-118 0 -188 72v-62h-81l-4 27v10q-21 -15 -65.5 -31t-96.5 -16q-81 0 -140 39t-59 115q0 75 59 113t140 38q53 0 98 -16.5t64 -32.5v41q0 76 -28.5 116.5t-103.5 40.5
q-88 0 -195 -61v70q108 63 210 63q137 0 180 -97q71 97 194 97q107 0 169 -75.5t62 -192.5zM710 439q-64 0 -107 -41t-51 -114h304q-8 72 -45 113.5t-101 41.5zM451 104v77q-11 19 -52.5 37t-88.5 18q-53 0 -93.5 -22.5t-40.5 -69.5t41 -71t93 -24q47 0 88.5 18t52.5 37z
" />
    <glyph glyph-name="e.ss01" horiz-adv-x="635" 
d="M565 248v-28h-388q8 -78 57 -117.5t131 -39.5q75 0 172 54v-66q-33 -26 -83 -43.5t-104 -17.5q-117 0 -188.5 73t-71.5 193q0 111 68.5 185.5t175.5 74.5t169 -75.5t62 -192.5zM336 439q-65 0 -108 -41t-51 -114h305q-8 72 -45 113.5t-101 41.5z" />
    <glyph glyph-name="eacute.ss01" horiz-adv-x="635" 
d="M474 759l-106 -147h-68l82 147h92zM565 248v-28h-388q8 -78 57 -117.5t131 -39.5q75 0 172 54v-66q-33 -26 -83 -43.5t-104 -17.5q-117 0 -188.5 73t-71.5 193q0 111 68.5 185.5t175.5 74.5t169 -75.5t62 -192.5zM336 439q-65 0 -108 -41t-51 -114h305q-8 72 -45 113.5
t-101 41.5z" />
    <glyph glyph-name="ecaron.ss01" horiz-adv-x="635" 
d="M298 612l-112 147h79l68 -100l67 100h79l-112 -147h-69zM565 248v-28h-388q8 -78 57 -117.5t131 -39.5q75 0 172 54v-66q-33 -26 -83 -43.5t-104 -17.5q-117 0 -188.5 73t-71.5 193q0 111 68.5 185.5t175.5 74.5t169 -75.5t62 -192.5zM336 439q-65 0 -108 -41t-51 -114
h305q-8 72 -45 113.5t-101 41.5z" />
    <glyph glyph-name="ecircumflex.ss01" horiz-adv-x="635" 
d="M335 712l-68 -100h-79l112 147h69l112 -147h-79zM565 248v-28h-388q8 -78 57 -117.5t131 -39.5q75 0 172 54v-66q-33 -26 -83 -43.5t-104 -17.5q-117 0 -188.5 73t-71.5 193q0 111 68.5 185.5t175.5 74.5t169 -75.5t62 -192.5zM336 439q-65 0 -108 -41t-51 -114h305
q-8 72 -45 113.5t-101 41.5z" />
    <glyph glyph-name="edieresis.ss01" horiz-adv-x="635" 
d="M252 639q-20 0 -34.5 14.5t-14.5 34.5q0 21 14.5 35t34.5 14q21 0 35 -14t14 -35q0 -20 -14 -34.5t-35 -14.5zM417 639q-20 0 -34.5 14.5t-14.5 34.5q0 21 14.5 35t34.5 14q21 0 35 -14t14 -35q0 -20 -14 -34.5t-35 -14.5zM565 248v-28h-388q8 -78 57 -117.5t131 -39.5
q75 0 172 54v-66q-33 -26 -83 -43.5t-104 -17.5q-117 0 -188.5 73t-71.5 193q0 111 68.5 185.5t175.5 74.5t169 -75.5t62 -192.5zM336 439q-65 0 -108 -41t-51 -114h305q-8 72 -45 113.5t-101 41.5z" />
    <glyph glyph-name="edotaccent.ss01" horiz-adv-x="635" 
d="M334 639q-20 0 -34.5 14.5t-14.5 34.5q0 21 14.5 35t34.5 14q21 0 35 -14t14 -35q0 -20 -14 -34.5t-35 -14.5zM565 248v-28h-388q8 -78 57 -117.5t131 -39.5q75 0 172 54v-66q-33 -26 -83 -43.5t-104 -17.5q-117 0 -188.5 73t-71.5 193q0 111 68.5 185.5t175.5 74.5
t169 -75.5t62 -192.5zM336 439q-65 0 -108 -41t-51 -114h305q-8 72 -45 113.5t-101 41.5z" />
    <glyph glyph-name="egrave.ss01" horiz-adv-x="635" 
d="M368 612h-68l-106 147h92zM565 248v-28h-388q8 -78 57 -117.5t131 -39.5q75 0 172 54v-66q-33 -26 -83 -43.5t-104 -17.5q-117 0 -188.5 73t-71.5 193q0 111 68.5 185.5t175.5 74.5t169 -75.5t62 -192.5zM336 439q-65 0 -108 -41t-51 -114h305q-8 72 -45 113.5t-101 41.5
z" />
    <glyph glyph-name="emacron.ss01" horiz-adv-x="635" 
d="M451 728v-81h-236v81h236zM565 248v-28h-388q8 -78 57 -117.5t131 -39.5q75 0 172 54v-66q-33 -26 -83 -43.5t-104 -17.5q-117 0 -188.5 73t-71.5 193q0 111 68.5 185.5t175.5 74.5t169 -75.5t62 -192.5zM336 439q-65 0 -108 -41t-51 -114h305q-8 72 -45 113.5t-101 41.5
z" />
    <glyph glyph-name="eogonek.ss01" horiz-adv-x="635" 
d="M565 248v-28h-388q8 -78 57 -117.5t131 -39.5q75 0 172 54v-66q-69 -54 -168 -60q-26 -31 -23.5 -57.5t31.5 -26.5q33 0 78 27v-69q-39 -39 -93 -39q-37 0 -62 25.5t-25 62.5t30 79q-99 14 -157 85t-58 178q0 111 68.5 185.5t175.5 74.5t169 -75.5t62 -192.5zM336 439
q-65 0 -108 -41t-51 -114h305q-8 72 -45 113.5t-101 41.5z" />
    <glyph glyph-name="uni1EBD.ss01" horiz-adv-x="635" 
d="M258 685q-27 0 -42.5 -15.5t-15.5 -38.5l-73 13q3 47 31.5 79t81.5 32q40 0 90 -36t80 -36q28 0 43 14.5t15 39.5l73 -13q-4 -48 -32 -79.5t-82 -31.5q-40 0 -90 36t-79 36zM565 248v-28h-388q8 -78 57 -117.5t131 -39.5q75 0 172 54v-66q-33 -26 -83 -43.5t-104 -17.5
q-117 0 -188.5 73t-71.5 193q0 111 68.5 185.5t175.5 74.5t169 -75.5t62 -192.5zM336 439q-65 0 -108 -41t-51 -114h305q-8 72 -45 113.5t-101 41.5z" />
    <glyph glyph-name="g.ss01" horiz-adv-x="706" 
d="M555 506h81v-470q0 -131 -69 -203.5t-191 -72.5t-235 66v70q125 -64 219 -64q92 0 141 51t49 153v79q-25 -55 -79.5 -90t-124.5 -35q-108 0 -182 77t-74 187q0 109 74 185.5t182 76.5q70 0 124.5 -35t79.5 -90zM359 71q77 0 129.5 53.5t52.5 129.5q0 74 -52.5 127.5
t-129.5 53.5t-130 -53.5t-53 -127.5q0 -76 53 -129.5t130 -53.5z" />
    <glyph glyph-name="gbreve.ss01" horiz-adv-x="706" 
d="M372 612q-71 0 -120 41t-49 106h68q0 -33 25 -60.5t76 -27.5t76 27.5t25 60.5h68q0 -65 -49 -106t-120 -41zM555 506h81v-470q0 -131 -69 -203.5t-191 -72.5t-235 66v70q125 -64 219 -64q92 0 141 51t49 153v79q-25 -55 -79.5 -90t-124.5 -35q-108 0 -182 77t-74 187
q0 109 74 185.5t182 76.5q70 0 124.5 -35t79.5 -90zM359 71q77 0 129.5 53.5t52.5 129.5q0 74 -52.5 127.5t-129.5 53.5t-130 -53.5t-53 -127.5q0 -76 53 -129.5t130 -53.5z" />
    <glyph glyph-name="gcommaaccent.ss01" horiz-adv-x="706" 
d="M462 807l-45 -191h-92l68 191h69zM555 506h81v-470q0 -131 -69 -203.5t-191 -72.5t-235 66v70q125 -64 219 -64q92 0 141 51t49 153v79q-25 -55 -79.5 -90t-124.5 -35q-108 0 -182 77t-74 187q0 109 74 185.5t182 76.5q70 0 124.5 -35t79.5 -90zM359 71q77 0 129.5 53.5
t52.5 129.5q0 74 -52.5 127.5t-129.5 53.5t-130 -53.5t-53 -127.5q0 -76 53 -129.5t130 -53.5z" />
    <glyph glyph-name="gdotaccent.ss01" horiz-adv-x="706" 
d="M372 639q-20 0 -34.5 14.5t-14.5 34.5q0 21 14.5 35t34.5 14q21 0 35 -14t14 -35q0 -20 -14 -34.5t-35 -14.5zM555 506h81v-470q0 -131 -69 -203.5t-191 -72.5t-235 66v70q125 -64 219 -64q92 0 141 51t49 153v79q-25 -55 -79.5 -90t-124.5 -35q-108 0 -182 77t-74 187
q0 109 74 185.5t182 76.5q70 0 124.5 -35t79.5 -90zM359 71q77 0 129.5 53.5t52.5 129.5q0 74 -52.5 127.5t-129.5 53.5t-130 -53.5t-53 -127.5q0 -76 53 -129.5t130 -53.5z" />
    <glyph glyph-name="i.ss01" horiz-adv-x="244" 
d="M132 591q-20 0 -34.5 14.5t-14.5 34.5q0 21 14.5 35t34.5 14q21 0 35 -14t14 -35q0 -20 -14 -34.5t-35 -14.5zM184 506v-506h-85v425l-39 4v77h124z" />
    <glyph glyph-name="dotlessi.ss01" horiz-adv-x="244" 
d="M184 506v-506h-85v425l-39 4v77h124z" />
    <glyph glyph-name="iacute.ss01" horiz-adv-x="244" 
d="M180 759h92l-106 -147h-68zM184 506v-506h-85v425l-39 4v77h124z" />
    <glyph glyph-name="icircumflex.ss01" horiz-adv-x="244" 
d="M167 759l112 -147h-79l-67 100l-68 -100h-79l112 147h69zM60 429v77h124v-506h-85v425z" />
    <glyph glyph-name="idieresis.ss01" horiz-adv-x="244" 
d="M50 591q-20 0 -34.5 14.5t-14.5 34.5q0 21 14.5 35t34.5 14q21 0 35 -14t14 -35q0 -20 -14 -34.5t-35 -14.5zM215 591q-20 0 -34.5 14.5t-14.5 34.5q0 21 14.5 35t34.5 14q21 0 35 -14t14 -35q0 -20 -14 -34.5t-35 -14.5zM184 506v-506h-85v425l-39 4v77h124z" />
    <glyph glyph-name="i.loclTRK.ss01" horiz-adv-x="244" 
d="M132 591q-20 0 -34.5 14.5t-14.5 34.5q0 21 14.5 35t34.5 14q21 0 35 -14t14 -35q0 -20 -14 -34.5t-35 -14.5zM184 506v-506h-85v425l-39 4v77h124z" />
    <glyph glyph-name="igrave.ss01" horiz-adv-x="244" 
d="M85 759l82 -147h-68l-106 147h92zM184 506v-506h-85v425l-39 4v77h124z" />
    <glyph glyph-name="imacron.ss01" horiz-adv-x="244" 
d="M13 728h236v-81h-236v81zM184 506v-506h-85v425l-39 4v77h124z" />
    <glyph glyph-name="iogonek.ss01" horiz-adv-x="244" 
d="M132 591q-20 0 -34.5 14.5t-14.5 34.5q0 21 14.5 35t34.5 14q21 0 35 -14t14 -35q0 -20 -14 -34.5t-35 -14.5zM174 -93q33 0 78 27v-69q-39 -39 -93 -39q-38 0 -63 25.5t-23.5 67t34.5 81.5h-8v425l-39 4v77h124v-506h-9q-22 -22 -29.5 -44t0.5 -35.5t28 -13.5z" />
    <glyph glyph-name="j.ss01" horiz-adv-x="240" 
d="M146 590q-20 0 -34.5 14.5t-14.5 34.5q0 21 14.5 35t34.5 14q21 0 35 -14t14 -35q0 -20 -14 -34.5t-35 -14.5zM199 506v-506l-80 -230h-89l84 236v419l-39 4v77h124z" />
    <glyph glyph-name="l.ss01" horiz-adv-x="254" 
d="M194 750v-750h-85v669l-39 4v77h124z" />
    <glyph glyph-name="lacute.ss01" horiz-adv-x="254" 
d="M192 1003h92l-106 -147h-68zM194 750v-750h-85v669l-39 4v77h124z" />
    <glyph glyph-name="lcaron.ss01" horiz-adv-x="330" 
d="M194 750v-750h-85v669l-39 4v77h124zM284 727h92l-68 -191h-69z" />
    <glyph glyph-name="lcommaaccent.ss01" horiz-adv-x="254" 
d="M194 750v-750h-85v669l-39 4v77h124zM106 -60h92l-68 -191h-69z" />
    <glyph glyph-name="lslash.ss01" horiz-adv-x="254" 
d="M283 434v-36l-89 -67v-331h-85v266l-93 -70v36l93 70v367l-39 4v77h124v-383z" />
    </font>
</defs>
</svg>
